# 3ds Max Wavefront OBJ Exporter v0.97b - (c)2007 guruware
# File Created: 29.02.2020 22:28:55

mtllib o_table_prl.mtl

#
# object o_table_prl
#

v  -42.1071 53.6712 -79.9553
v  -41.8107 53.6712 -80.1425
v  -41.8107 53.3748 -79.9553
v  41.8107 53.6712 -80.1425
v  42.1071 53.6712 -79.9553
v  41.8107 53.3748 -79.9553
v  -41.8107 53.6712 3.5675
v  -42.1071 53.6712 3.3802
v  -41.8107 53.3748 3.3802
v  42.1071 53.6712 3.3802
v  41.8107 53.6712 3.5675
v  41.8107 53.3748 3.3802
v  -41.8107 56.5284 3.3802
v  -42.1071 56.2320 3.3802
v  -41.8107 56.2320 3.5675
v  42.1071 56.2320 3.3802
v  41.8107 56.5284 3.3802
v  41.8107 56.2320 3.5675
v  -41.8107 56.2320 -80.1425
v  -42.1071 56.2320 -79.9553
v  -41.8107 56.5284 -79.9553
v  42.1071 56.2320 -79.9553
v  41.8107 56.2320 -80.1425
v  41.8107 56.5284 -79.9553
v  -42.1071 53.6712 3.9867
v  -41.8107 53.6712 3.7994
v  -41.8107 53.3748 3.9867
v  41.8107 53.6712 3.7994
v  42.1071 53.6712 3.9867
v  41.8107 53.3748 3.9867
v  -41.8107 53.6712 87.5094
v  -42.1071 53.6712 87.3221
v  -41.8107 53.3748 87.3221
v  42.1071 53.6712 87.3221
v  41.8107 53.6712 87.5094
v  41.8107 53.3748 87.3221
v  -41.8107 56.5284 87.3221
v  -42.1071 56.2320 87.3221
v  -41.8107 56.2320 87.5094
v  42.1071 56.2320 87.3221
v  41.8107 56.5284 87.3221
v  41.8107 56.2320 87.5094
v  -41.8107 56.2320 3.7994
v  -42.1071 56.2320 3.9867
v  -41.8107 56.5284 3.9867
v  42.1071 56.2320 3.9867
v  41.8107 56.2320 3.7994
v  41.8107 56.5284 3.9867
v  -34.8038 22.2752 -65.1757
v  -34.5236 22.2752 -65.4681
v  -34.5236 21.9459 -65.1757
v  34.4805 22.2752 -65.4681
v  34.7606 22.2752 -65.1757
v  34.4805 21.9459 -65.1757
v  -34.5236 22.2752 65.2437
v  -34.8038 22.2752 64.9512
v  -34.5236 21.9459 64.9512
v  34.7606 22.2752 64.9512
v  34.4805 22.2752 65.2437
v  34.4805 21.9459 64.9512
v  -34.5236 25.4496 64.9512
v  -34.8038 25.1203 64.9512
v  -34.5236 25.1203 65.2437
v  34.7606 25.1203 64.9512
v  34.4805 25.4496 64.9512
v  34.4805 25.1203 65.2437
v  -34.5236 25.1203 -65.4681
v  -34.8038 25.1203 -65.1757
v  -34.5236 25.4496 -65.1757
v  34.7606 25.1203 -65.1757
v  34.4805 25.1203 -65.4681
v  34.4805 25.4496 -65.1757
v  -36.8498 0.3247 -73.1087
v  -31.2869 55.3652 -56.3523
v  -28.6872 55.0230 -56.3523
v  -39.4495 0.6670 -73.1087
v  -31.6314 55.3228 -56.0278
v  -39.7939 0.6246 -72.7842
v  -39.9018 -0.1950 -69.6989
v  -31.7393 54.5032 -52.9424
v  -36.6360 -0.6250 -69.6989
v  -28.3655 54.8929 -56.0278
v  -28.4734 54.0733 -52.9424
v  -36.5281 0.1947 -72.7842
v  -31.4176 54.3731 -52.6179
v  -36.9804 -0.6673 -69.3743
v  -28.8179 54.0309 -52.6179
v  -39.5801 -0.3251 -69.3743
v  -36.8498 -1.6576 70.1651
v  -31.2869 54.3470 56.9854
v  -28.6872 54.0512 57.1574
v  -39.4495 -1.3618 69.9930
v  -31.6314 54.4735 57.2872
v  -39.9018 -0.3930 73.3741
v  -31.7393 55.3157 60.3665
v  -39.7939 -1.2353 70.2949
v  -28.3655 54.1019 57.5033
v  -36.6360 -0.7647 73.5903
v  -36.5281 -1.6070 70.5110
v  -28.4734 54.9441 60.5826
v  -31.4176 55.3664 60.7124
v  -36.9804 -0.6382 73.8921
v  -28.8179 55.0706 60.8844
v  -39.5801 -0.3424 73.7200
v  37.9306 0.3618 -73.1087
v  30.0193 55.1139 -56.3523
v  32.6246 55.4105 -56.3523
v  35.3253 0.0652 -73.1087
v  29.6954 54.9895 -56.0278
v  35.0013 -0.0592 -72.7842
v  35.0948 -0.8806 -69.6989
v  29.7889 54.1682 -52.9424
v  38.3677 -0.5081 -69.6989
v  32.9683 55.3621 -56.0278
v  33.0618 54.5407 -52.9424
v  38.2742 0.3134 -72.7842
v  38.0437 -0.6325 -69.3743
v  30.1325 54.1198 -52.6179
v  35.4384 -0.9290 -69.3743
v  32.7378 54.4163 -52.6179
v  38.4100 -1.5619 70.1651
v  30.2656 54.1259 56.9854
v  32.8597 54.4673 57.1574
v  35.8159 -1.9034 69.9930
v  29.9008 54.1653 57.2872
v  35.1428 -1.0728 73.3741
v  29.5924 54.9565 60.3665
v  35.4511 -1.8639 70.2949
v  33.1596 54.5943 57.5033
v  38.4016 -0.6439 73.5903
v  38.7099 -1.4350 70.5110
v  32.8512 55.3854 60.5826
v  38.0368 -0.6044 73.8921
v  29.8924 55.0834 60.7124
v  35.4427 -0.9459 73.7200
v  32.4864 55.4249 60.8844
# 136 vertices

vn -0.4711 -0.4711 -0.7457
vn 0.4711 -0.4711 -0.7457
vn -0.4712 -0.4712 0.7456
vn 0.4712 -0.4712 0.7456
vn -0.4712 0.4712 0.7456
vn 0.4712 0.4712 0.7456
vn -0.4711 0.4711 -0.7457
vn 0.4711 0.4711 -0.7457
vn -0.4712 -0.4712 -0.7456
vn 0.4712 -0.4712 -0.7456
vn -0.4712 0.4712 -0.7456
vn 0.4712 0.4712 -0.7456
vn -0.6153 -0.5234 -0.5895
vn 0.6153 -0.5234 -0.5895
vn -0.6153 -0.5235 0.5894
vn 0.6153 -0.5235 0.5894
vn -0.6153 0.5235 0.5894
vn 0.6153 0.5235 0.5894
vn -0.6153 0.5234 -0.5895
vn 0.6153 0.5234 -0.5895
vn 0.0000 0.0000 -1.0000
vn 0.0000 -1.0000 -0.0000
vn -1.0000 0.0000 -0.0000
vn 1.0000 0.0000 -0.0000
vn 0.0000 0.0000 1.0000
vn -0.5341 0.0000 -0.8454
vn 0.0000 -0.5341 -0.8454
vn -0.7071 -0.7071 -0.0000
vn 0.5341 0.0000 -0.8454
vn 0.7071 -0.7071 -0.0000
vn -0.5342 0.0000 0.8453
vn 0.0000 -0.5342 0.8453
vn 0.5342 0.0000 0.8453
vn -0.7071 0.7071 -0.0000
vn 0.0000 0.5342 0.8453
vn 0.7071 0.7071 -0.0000
vn 0.0000 0.5341 -0.8454
vn 0.0000 1.0000 -0.0000
vn -0.5342 0.0000 -0.8453
vn 0.0000 -0.5342 -0.8453
vn 0.5342 0.0000 -0.8453
vn 0.0000 0.5342 -0.8453
vn -0.7221 0.0000 -0.6918
vn 0.0000 -0.6640 -0.7478
vn -0.7617 -0.6480 -0.0000
vn 0.7221 0.0000 -0.6918
vn 0.7617 -0.6480 -0.0000
vn -0.7222 0.0000 0.6917
vn 0.0000 -0.6641 0.7477
vn 0.7222 0.0000 0.6917
vn -0.7617 0.6480 -0.0000
vn 0.0000 0.6641 0.7477
vn 0.7617 0.6480 -0.0000
vn 0.0000 0.6640 -0.7478
vn 0.0379 0.2875 -0.9570
vn -0.9892 0.1463 0.0043
vn 0.9892 -0.1463 -0.0043
vn -0.0379 -0.2875 0.9570
vn 0.0379 -0.2325 -0.9719
vn 0.0378 -0.2325 -0.9719
vn -0.9892 0.1286 -0.0699
vn -0.9892 0.1286 -0.0698
vn 0.9892 -0.1286 0.0699
vn 0.9892 -0.1286 0.0698
vn -0.0378 0.2325 0.9719
vn -0.0379 0.2325 0.9719
vn -0.0328 0.2881 -0.9570
vn -0.9953 -0.0972 0.0043
vn 0.9953 0.0972 -0.0043
vn 0.0328 -0.2881 0.9570
vn 0.0929 -0.2164 -0.9719
vn -0.9910 -0.1144 -0.0699
vn -0.9910 -0.1144 -0.0698
vn 0.9910 0.1144 0.0699
vn 0.9910 0.1144 0.0698
vn -0.0929 0.2164 0.9719
vn -0.1261 -0.9577 -0.2588
vn -0.1261 -0.9580 0.2576
vn 0.1092 -0.9597 -0.2588
vn 0.1093 -0.9601 0.2576
vn 0.1093 -0.9600 0.2576
vn -0.6724 0.3067 -0.6736
vn -0.7263 -0.0999 0.6800
vn 0.6724 -0.3067 0.6736
vn 0.7263 0.0999 -0.6800
vn -0.6724 -0.0735 -0.7365
vn -0.7263 0.2554 0.6382
vn 0.6724 0.0735 0.7365
vn 0.7263 -0.2554 -0.6382
vn -0.7266 0.1350 -0.6736
vn -0.6806 -0.2726 0.6800
vn 0.7266 -0.1350 0.6736
vn 0.6806 0.2726 -0.6800
vn -0.6347 -0.2339 -0.7365
vn -0.7665 0.0722 0.6382
vn 0.6347 0.2339 0.7365
vn 0.7665 -0.0722 -0.6382
# 97 vertex normals

vt 0.7988 0.5532 0.5532
vt 0.7944 0.5569 0.5569
vt 0.7944 0.5532 0.5532
vt -0.0750 0.5571 0.5571
vt -0.0793 0.5535 0.5535
vt -0.0750 0.5535 0.5535
vt 0.7944 -0.3174 -0.3174
vt 0.7983 -0.3135 -0.3135
vt 0.7944 -0.3135 -0.3135
vt -0.0797 -0.3135 -0.3135
vt -0.0753 -0.3164 -0.3164
vt -0.0753 -0.3135 -0.3135
vt 0.7944 -0.3477 -0.3477
vt 0.7979 -0.3438 -0.3438
vt 0.7944 -0.3438 -0.3438
vt -0.0789 -0.3438 -0.3438
vt -0.0753 -0.3467 -0.3467
vt -0.0753 -0.3438 -0.3438
vt 0.8252 -0.3164 -0.3164
vt 0.8296 -0.3125 -0.3125
vt 0.8252 -0.3125 -0.3125
vt -0.0486 -0.2998 -0.2998
vt -0.0442 -0.3154 -0.3154
vt -0.0442 -0.3125 -0.3125
vt -0.0449 -0.3311 -0.3311
vt -0.0405 -0.3350 -0.3350
vt -0.0405 -0.3311 -0.3311
vt 0.8291 -0.3350 -0.3350
vt 0.8335 -0.3311 -0.3311
vt 0.8291 -0.3311 -0.3311
vt -0.0405 0.5393 0.5393
vt -0.0449 0.5356 0.5356
vt -0.0405 0.5356 0.5356
vt 0.8335 0.5356 0.5356
vt 0.8291 0.5391 0.5391
vt 0.8291 0.5356 0.5356
vt -0.0406 0.5696 0.5696
vt -0.0442 0.5659 0.5659
vt -0.0406 0.5659 0.5659
vt 0.8330 0.5659 0.5659
vt 0.8291 0.5693 0.5693
vt 0.8291 0.5659 0.5659
vt 0.8184 0.3901 0.3901
vt 0.8228 0.3936 0.3936
vt 0.8184 0.3936 0.3936
vt -0.0554 0.3936 0.3936
vt -0.0511 0.3896 0.3896
vt -0.0511 0.3936 0.3936
vt -0.1635 0.1191 0.1191
vt -0.1605 0.1162 0.1162
vt -0.1605 0.1191 0.1191
vt 0.3079 0.1162 0.1162
vt 0.3108 0.1191 0.1191
vt 0.3079 0.1191 0.1191
vt -0.1605 1.0058 1.0058
vt -0.1635 1.0028 1.0028
vt -0.1605 1.0028 1.0028
vt 0.3108 1.0028 1.0028
vt 0.3081 1.0058 1.0058
vt 0.3079 1.0028 1.0028
vt -0.1605 1.0281 1.0281
vt -0.1632 1.0253 1.0253
vt -0.1605 1.0251 1.0251
vt 0.3108 1.0253 1.0253
vt 0.3081 1.0281 1.0281
vt 0.3079 1.0251 1.0251
vt 0.3577 1.0079 1.0079
vt 0.3547 1.0049 1.0049
vt 0.3577 1.0049 1.0049
vt 0.8291 1.0049 1.0049
vt 0.8262 1.0079 1.0079
vt 0.8262 1.0049 1.0049
vt 0.7944 0.5835 0.5835
vt -0.0750 0.5837 0.5837
vt 0.8257 0.5532 0.5532
vt 0.8252 -0.3135 -0.3135
vt -0.0767 -0.2881 -0.2881
vt -0.0484 0.5422 0.5422
vt -0.0765 0.5305 0.5305
vt 0.7983 0.5569 0.5569
vt 0.7983 0.5835 0.5835
vt -0.0786 0.5571 0.5571
vt -0.0786 0.5837 0.5837
vt 0.7979 -0.3174 -0.3174
vt -0.0790 -0.3164 -0.3164
vt 0.8257 0.5542 0.5542
vt 0.8301 0.5542 0.5542
vt -0.0440 0.5542 0.5542
vt -0.0511 0.3633 0.3633
vt 0.8184 0.3633 0.3633
vt -0.0715 -0.3311 -0.3311
vt -0.0715 0.5356 0.5356
vt -0.0821 0.3936 0.3936
vt -0.0553 1.2605 1.2605
vt -0.0820 1.2605 1.2605
vt 0.8223 0.3633 0.3633
vt 0.8223 0.3901 0.3901
vt -0.0547 0.3633 0.3633
vt -0.0547 0.3896 0.3896
vt -0.0442 0.5393 0.5393
vt 0.8330 0.5391 0.5391
vt 0.8184 1.2598 1.2598
vt 0.8228 1.2598 1.2598
vt -0.0510 1.2605 1.2605
vt 0.8262 1.0272 1.0272
vt 0.3577 1.0272 1.0272
vt 0.3354 0.1216 0.1216
vt 0.3547 0.1216 0.1216
vt 0.3354 1.0049 1.0049
vt 0.3303 1.0028 1.0028
vt 0.3303 0.1191 0.1191
vt 0.3550 1.0079 1.0079
vt 0.3550 1.0272 1.0272
vt 0.8291 1.0272 1.0272
vt 0.8291 1.0079 1.0079
vt -0.1632 1.0058 1.0058
vt 0.3108 1.0058 1.0058
vt 0.3577 0.1216 0.1216
vt 0.8291 0.1216 0.1216
vt 0.8262 0.1216 0.1216
vt 0.3923 0.3481 0.3481
vt 0.3694 -0.1338 -0.1338
vt 0.3914 -0.1338 -0.1338
vt 0.3704 0.3486 0.3486
vt 0.3652 -0.1338 -0.1338
vt 0.3665 0.3486 0.3486
vt 0.3398 0.3477 0.3477
vt 0.3384 -0.1338 -0.1338
vt 0.4229 0.3472 0.3472
vt 0.3953 -0.1338 -0.1338
vt 0.4221 -0.1348 -0.1348
vt 0.3962 0.3477 0.3477
vt 0.4480 -0.1348 -0.1348
vt 0.4268 0.3467 0.3467
vt 0.4260 -0.1348 -0.1348
vt 0.4487 0.3472 0.3472
vt 0.5894 0.8430 0.8430
vt 0.5659 0.3608 0.3608
vt 0.5879 0.3604 0.3604
vt 0.5674 0.8434 0.8434
vt 0.5620 0.3608 0.3608
vt 0.5366 0.8427 0.8427
vt 0.5352 0.3599 0.3599
vt 0.5635 0.8434 0.8434
vt 0.4788 0.3604 0.3604
vt 0.5068 0.8423 0.8423
vt 0.4802 0.8433 0.8433
vt 0.5054 0.3594 0.3594
vt 0.5313 0.3599 0.3599
vt 0.5107 0.8422 0.8422
vt 0.5093 0.3594 0.3594
vt 0.5327 0.8425 0.8425
vt 0.4197 0.3921 0.3921
vt 0.4426 0.8749 0.8749
vt 0.4221 0.8749 0.8749
vt 0.4414 0.3916 0.3916
vt 0.4465 0.8749 0.8749
vt 0.4456 0.3916 0.3916
vt 0.4722 0.3926 0.3926
vt 0.4722 0.8749 0.8749
vt 0.3889 0.3931 0.3931
vt 0.4126 0.8749 0.8749
vt 0.3877 0.8749 0.8749
vt 0.4158 0.3921 0.3921
vt 0.3850 0.3931 0.3931
vt 0.3628 0.8749 0.8749
vt 0.3633 0.3926 0.3926
vt 0.3840 0.8749 0.8749
vt 0.3364 0.3892 0.3892
vt 0.3589 0.8723 0.8723
vt 0.3374 0.8723 0.8723
vt 0.3584 0.3892 0.3892
vt 0.2500 0.8723 0.8723
vt 0.2759 0.3901 0.3901
vt 0.2771 0.8723 0.8723
vt 0.2493 0.3892 0.3892
vt 0.3333 0.8723 0.8723
vt 0.3059 0.3901 0.3901
vt 0.3325 0.3896 0.3896
vt 0.3074 0.8723 0.8723
vt 0.3018 0.3906 0.3906
vt 0.2813 0.8723 0.8723
vt 0.2798 0.3901 0.3901
vt 0.3035 0.8723 0.8723
vt 0.4238 0.3745 0.3745
vt 0.4258 0.3496 0.3496
vt 0.4265 0.3716 0.3716
vt 0.5625 0.8708 0.8708
vt 0.5361 0.8701 0.8701
vt 0.4731 0.3647 0.3647
vt 0.4751 0.3896 0.3896
vt 0.4758 0.3677 0.3677
vt 0.2798 0.3652 0.3652
vt 0.2788 0.3872 0.3872
vt 0.2771 0.3623 0.3623
vt 0.4526 0.3472 0.3472
vt 0.4521 -0.1348 -0.1348
vt 0.5918 0.3604 0.3604
vt 0.5933 0.8429 0.8429
vt 0.4761 0.3926 0.3926
vt 0.4761 0.8749 0.8749
vt 0.2461 0.8723 0.8723
vt 0.2452 0.3892 0.3892
vt 0.3972 0.3750 0.3750
vt 0.3943 0.3726 0.3726
vt 0.3936 0.3506 0.3506
vt 0.4436 0.3667 0.3667
vt 0.4465 0.3643 0.3643
vt 0.4429 0.3887 0.3887
vt 0.2505 0.3618 0.3618
vt 0.2466 0.3862 0.3862
vt 0.2476 0.3643 0.3643
vt 0.5654 0.8680 0.8680
vt 0.5659 0.8463 0.8463
vt 0.5337 0.8453 0.8453
vt 0.5332 0.8673 0.8673
# 216 texture coords

o o_table_prl
g o_table_prl
usemtl o_polywood_05_b
s 1
f 1/1/1 2/2/1 3/3/1 
f 4/4/2 5/5/2 6/6/2 
f 7/7/3 8/8/3 9/9/3 
f 10/10/4 11/11/4 12/12/4 
f 13/13/5 14/14/5 15/15/5 
f 16/16/6 17/17/6 18/18/6 
f 19/19/7 20/20/7 21/21/7 
f 22/22/8 23/23/8 24/24/8 
f 25/25/9 26/26/9 27/27/9 
f 28/28/10 29/29/10 30/30/10 
f 31/31/3 32/32/3 33/33/3 
f 34/34/4 35/35/4 36/36/4 
f 37/37/5 38/38/5 39/39/5 
f 40/40/6 41/41/6 42/42/6 
f 43/43/11 44/44/11 45/45/11 
f 46/46/12 47/47/12 48/48/12 
f 49/49/13 50/50/13 51/51/13 
f 52/52/14 53/53/14 54/54/14 
f 55/55/15 56/56/15 57/57/15 
f 58/58/16 59/59/16 60/60/16 
f 61/61/17 62/62/17 63/63/17 
f 64/64/18 65/65/18 66/66/18 
f 67/67/19 68/68/19 69/69/19 
f 70/70/20 71/71/20 72/72/20 
f 4/4/21 2/2/21 19/73/21 
f 4/4/21 19/73/21 23/74/21 
f 9/9/22 3/3/22 12/12/22 
f 12/12/22 3/3/22 6/6/22 
f 20/75/23 8/8/23 14/76/23 
f 8/8/23 20/75/23 1/1/23 
f 5/77/24 16/78/24 10/79/24 
f 16/78/24 5/77/24 22/22/24 
f 15/15/25 11/11/25 18/18/25 
f 11/11/25 15/15/25 7/7/25 
f 1/80/26 20/81/26 2/2/26 
f 2/2/26 20/81/26 19/73/26 
f 2/2/27 4/4/27 3/3/27 
f 6/6/27 3/3/27 4/4/27 
f 8/8/28 1/1/28 9/9/28 
f 9/9/28 1/1/28 3/3/28 
f 4/4/29 23/74/29 5/82/29 
f 5/82/29 23/74/29 22/83/29 
f 12/12/30 6/6/30 10/10/30 
f 10/10/30 6/6/30 5/5/30 
f 14/14/31 8/84/31 15/15/31 
f 15/15/31 8/84/31 7/7/31 
f 9/9/32 12/12/32 7/7/32 
f 11/11/32 7/7/32 12/12/32 
f 18/18/33 11/11/33 16/16/33 
f 16/16/33 11/11/33 10/85/33 
f 13/86/34 20/20/34 14/87/34 
f 20/20/34 13/86/34 21/21/34 
f 15/15/35 18/18/35 13/13/35 
f 17/17/35 13/13/35 18/18/35 
f 16/78/36 22/22/36 17/88/36 
f 17/88/36 22/22/36 24/24/36 
f 21/21/37 24/24/37 19/19/37 
f 23/23/37 19/19/37 24/24/37 
f 13/86/38 17/88/38 21/21/38 
f 17/88/38 24/24/38 21/21/38 
f 28/89/21 26/90/21 43/43/21 
f 28/89/21 43/43/21 47/47/21 
f 33/33/22 27/27/22 36/36/22 
f 36/36/22 27/27/22 30/30/22 
f 44/91/23 32/32/23 38/92/23 
f 32/32/23 44/91/23 25/25/23 
f 29/93/24 40/94/24 34/95/24 
f 40/94/24 29/93/24 46/46/24 
f 39/39/25 35/35/25 42/42/25 
f 35/35/25 39/39/25 31/31/25 
f 25/96/39 44/97/39 26/90/39 
f 26/90/39 44/97/39 43/43/39 
f 26/26/40 28/28/40 27/27/40 
f 30/30/40 27/27/40 28/28/40 
f 32/32/28 25/25/28 33/33/28 
f 33/33/28 25/25/28 27/27/28 
f 28/89/41 47/47/41 29/98/41 
f 29/98/41 47/47/41 46/99/41 
f 36/36/30 30/30/30 34/34/30 
f 34/34/30 30/30/30 29/29/30 
f 38/38/31 32/100/31 39/39/31 
f 39/39/31 32/100/31 31/31/31 
f 33/33/32 36/36/32 31/31/32 
f 35/35/32 31/31/32 36/36/32 
f 42/42/33 35/35/33 40/40/33 
f 40/40/33 35/35/33 34/101/33 
f 37/102/34 44/44/34 38/103/34 
f 44/44/34 37/102/34 45/45/34 
f 39/39/35 42/42/35 37/37/35 
f 41/41/35 37/37/35 42/42/35 
f 40/94/36 46/46/36 41/104/36 
f 41/104/36 46/46/36 48/48/36 
f 45/45/42 48/48/42 43/43/42 
f 47/47/42 43/43/42 48/48/42 
f 37/102/38 41/104/38 45/45/38 
f 41/104/38 48/48/38 45/45/38 
f 52/105/21 50/106/21 67/67/21 
f 52/105/21 67/67/21 71/71/21 
f 57/57/22 51/51/22 60/60/22 
f 60/60/22 51/51/22 54/54/22 
f 68/68/23 56/107/23 62/108/23 
f 56/107/23 68/68/23 49/109/23 
f 53/53/24 64/110/24 58/58/24 
f 64/110/24 53/53/24 70/111/24 
f 63/63/25 59/59/25 66/66/25 
f 59/59/25 63/63/25 55/55/25 
f 68/112/43 50/106/43 49/113/43 
f 50/106/43 68/112/43 67/67/43 
f 50/50/44 52/52/44 51/51/44 
f 54/54/44 51/51/44 52/52/44 
f 56/56/45 49/49/45 57/57/45 
f 57/57/45 49/49/45 51/51/45 
f 52/105/46 71/71/46 53/114/46 
f 70/115/46 53/114/46 71/71/46 
f 60/60/47 54/54/47 58/58/47 
f 58/58/47 54/54/47 53/53/47 
f 63/63/48 56/116/48 55/55/48 
f 56/116/48 63/63/48 62/62/48 
f 57/57/49 60/60/49 55/55/49 
f 59/59/49 55/55/49 60/60/49 
f 58/117/50 64/64/50 59/59/50 
f 66/66/50 59/59/50 64/64/50 
f 61/118/51 68/68/51 62/108/51 
f 68/68/51 61/118/51 69/69/51 
f 63/63/52 66/66/52 61/61/52 
f 65/65/52 61/61/52 66/66/52 
f 64/119/53 70/70/53 65/120/53 
f 65/120/53 70/70/53 72/72/53 
f 69/69/54 72/72/54 67/67/54 
f 71/71/54 67/67/54 72/72/54 
f 69/69/38 61/118/38 65/120/38 
f 65/120/38 72/72/38 69/69/38 
f 73/121/55 74/122/55 75/123/55 
f 74/122/55 73/121/55 76/124/55 
f 77/125/56 78/126/56 79/127/56 
f 79/127/56 80/128/56 77/125/56 
f 81/129/57 82/130/57 83/131/57 
f 82/130/57 81/129/57 84/132/57 
f 85/133/58 86/134/58 87/135/58 
f 86/134/58 85/133/58 88/136/58 
f 89/137/59 90/138/60 91/139/60 
f 90/138/60 89/137/59 92/140/59 
f 93/141/61 94/142/62 95/143/61 
f 94/142/62 93/141/61 96/144/62 
f 97/145/63 98/146/64 99/147/64 
f 98/146/64 97/145/63 100/148/63 
f 101/149/65 102/150/66 103/151/65 
f 102/150/66 101/149/65 104/152/66 
f 105/153/67 106/154/67 107/155/67 
f 106/154/67 105/153/67 108/156/67 
f 109/157/68 110/158/68 111/159/68 
f 111/159/68 112/160/68 109/157/68 
f 113/161/69 114/162/69 115/163/69 
f 114/162/69 113/161/69 116/164/69 
f 117/165/70 118/166/70 119/167/70 
f 118/166/70 117/165/70 120/168/70 
f 121/169/71 122/170/71 123/171/71 
f 122/170/71 121/169/71 124/172/71 
f 125/173/72 126/174/73 127/175/72 
f 126/174/73 125/173/72 128/176/73 
f 129/177/74 130/178/75 131/179/75 
f 130/178/75 129/177/74 132/180/74 
f 133/181/76 134/182/76 135/183/76 
f 134/182/76 133/181/76 136/184/76 
f 79/185/77 86/186/77 88/187/77 
f 86/186/77 79/185/77 81/129/77 
f 94/142/78 99/188/78 98/189/78 
f 99/188/78 94/142/78 96/144/78 
f 113/190/79 119/191/79 111/159/79 
f 119/191/79 113/190/79 117/192/79 
f 126/174/80 133/193/80 135/194/81 
f 133/193/80 126/174/80 130/195/80 
f 78/126/82 77/125/82 76/124/82 
f 76/124/82 77/125/82 74/122/82 
f 85/133/83 79/196/83 88/136/83 
f 79/196/83 85/133/83 80/197/83 
f 87/135/84 81/129/84 83/131/84 
f 81/129/84 87/135/84 86/134/84 
f 73/121/85 82/130/85 84/132/85 
f 82/130/85 73/121/85 75/123/85 
f 96/144/86 90/138/86 92/140/86 
f 90/138/86 96/144/86 93/141/86 
f 101/149/87 94/142/87 104/152/87 
f 95/143/87 94/142/87 101/149/87 
f 103/151/88 102/150/88 100/148/88 
f 100/148/88 102/150/88 98/146/88 
f 89/137/89 97/198/89 99/199/89 
f 97/198/89 89/137/89 91/139/89 
f 109/157/90 108/156/90 110/158/90 
f 108/156/90 109/157/90 106/154/90 
f 119/200/91 112/160/91 111/159/91 
f 112/160/91 119/200/91 118/201/91 
f 113/161/92 120/168/92 117/165/92 
f 120/168/92 113/161/92 115/163/92 
f 105/153/93 107/155/93 116/164/93 
f 114/162/93 116/164/93 107/155/93 
f 128/176/94 122/202/94 124/203/94 
f 122/202/94 128/176/94 125/173/94 
f 127/175/95 135/183/95 134/182/95 
f 135/183/95 127/175/95 126/174/95 
f 130/178/96 132/180/96 133/181/96 
f 136/184/96 133/181/96 132/180/96 
f 121/169/97 123/171/97 131/179/97 
f 129/177/97 131/179/97 123/171/97 
f 84/132/77 78/204/77 76/205/77 
f 84/132/77 76/205/77 73/206/77 
f 79/185/77 78/204/77 81/129/77 
f 81/129/77 78/204/77 84/132/77 
f 110/158/79 105/207/79 116/208/79 
f 105/207/79 110/158/79 108/209/79 
f 111/159/79 116/208/79 113/190/79 
f 116/208/79 111/159/79 110/158/79 
f 128/176/80 130/195/80 126/174/80 
f 130/195/80 128/176/80 131/210/80 
f 124/211/80 131/210/80 128/176/80 
f 131/210/80 124/211/80 121/212/81 
f 96/144/78 89/213/78 99/188/78 
f 89/213/78 96/144/78 92/214/78 
f 98/189/78 104/215/78 94/142/78 
f 104/215/78 98/189/78 102/216/78 
# 0 polygons - 220 triangles

