# Blender v2.81 (sub 16) OBJ File: ''
# www.blender.org
mtllib body.mtl
o mesh04052.001
v 0.219482 5.472396 -0.083239
v 0.220426 5.342764 -0.160519
v -0.977230 2.257804 -0.294856
v -0.831046 1.451756 -1.166976
v -1.033950 1.564388 -0.361840
v -0.780214 2.590276 -0.285424
v -0.383582 2.933884 0.482800
v -0.728838 3.501388 -0.374343
v 0.231034 2.476044 -1.038888
v 0.234266 3.328908 -1.296456
v 0.906930 2.489980 -0.832568
v 1.477018 1.564388 -0.145744
v 1.296146 1.451756 -1.141064
v 1.325218 2.644716 -0.133656
v 0.661986 4.906724 -0.173023
v 0.613090 5.219420 -0.288855
v 1.098266 2.005076 0.735184
v 0.957394 2.737004 0.692584
v 0.204346 2.026092 1.162128
v 1.266954 1.901932 -0.301768
v 1.133906 1.549228 -1.032248
v -0.169102 5.219420 -0.298359
v -0.139102 5.468868 -0.578159
v -0.170286 5.221124 -0.995911
v -0.315902 4.938740 -0.505839
v -0.211510 4.903732 -0.947023
v 0.582522 5.468868 -0.569391
v 0.631234 5.221124 -0.986295
v 1.125290 3.451404 -0.360743
v 0.671354 4.903732 -0.936311
v -0.537158 2.504740 0.674456
v -0.678982 2.005076 0.713568
v 0.207074 2.684084 0.939200
v 1.191970 2.793676 -0.261368
v 0.951834 3.304804 -0.920128
v 0.231730 4.915933 -1.091039
v 0.999498 2.330492 -1.005672
v 0.235842 1.507548 -1.426160
v 0.232610 2.312228 -1.164160
v 0.707962 3.829692 0.322545
v 0.740674 3.088724 0.496433
v -0.608742 2.046012 0.517240
v -0.822454 1.901932 -0.327208
v -0.671574 1.549228 -1.054256
v 0.234666 1.554244 -1.332592
v 1.032826 2.046012 0.537296
v 0.208922 2.109972 0.780728
v -0.220782 4.906724 -0.183807
v -0.433798 3.749052 0.231433
v 0.209818 3.032116 0.707440
v -0.606558 2.293948 -1.018192
v -0.497822 2.417332 -0.869152
v -0.451598 3.321532 -0.928136
v 0.211810 3.835036 0.546641
v 0.217842 4.900212 0.051393
v 0.219202 5.162852 -0.062191
v 0.230930 5.355236 -1.023023
vt -0.626836 0.428247
vt -0.565404 0.502559
vt -0.623228 0.490222
vt -0.625861 0.390265
vt -0.697581 0.351021
vt -0.591586 0.329261
vt -0.513821 0.397259
vt -0.513821 0.316244
vt -0.562967 0.395705
vt -0.625910 0.493039
vt -0.568086 0.505473
vt -0.625276 0.384048
vt -0.696849 0.470503
vt -0.701627 0.386477
vt -0.744776 0.456418
vt -0.592171 0.174226
vt -0.551363 0.127696
vt -0.567306 0.096028
vt -0.698946 0.412996
vt -0.694168 0.470503
vt -0.744776 0.392499
vt -0.628250 0.367049
vt -0.556433 0.316924
vt -0.513821 0.124684
vt -0.561699 0.413870
vt -0.513821 0.506833
vt -0.513821 0.423098
vt -0.656480 0.125656
vt -0.695777 0.247566
vt -0.592610 0.333050
vt -0.704845 0.333341
vt -0.973635 0.891702
vt -0.991431 0.883348
vt -0.988408 0.872177
vt -0.992211 0.833224
vt -0.989090 0.834487
vt -0.985872 0.799516
vt -0.961348 0.799516
vt -0.973635 0.798059
vt -0.973635 0.789414
vt -0.988359 0.791162
vt -0.958813 0.872177
vt -0.958130 0.834487
vt -0.955010 0.833224
vt -0.958862 0.791162
vt -0.955790 0.883348
vt -0.973635 0.876937
vt -0.617670 0.096222
vt -0.653798 0.125656
vt -0.676616 0.256795
vt -0.744776 0.339752
vt -0.516210 0.506833
vt -0.562284 0.418047
vt -0.516210 0.423098
vt -0.562040 0.403962
vt -0.516210 0.397259
vt -0.553752 0.316924
vt -0.516210 0.316244
vt -0.516210 0.124684
vt -0.744776 0.246984
vt -0.744776 0.126433
vt -0.744776 0.093599
vt -0.744776 0.069412
vt -0.590221 0.057366
vt -0.516210 0.073880
vt -0.554044 0.127696
vt -0.557847 0.099719
vt -0.513821 0.073880
vt -0.591099 0.049692
vt -0.621717 0.099914
vn -0.9479 0.3065 -0.0871
vn -0.7629 0.2362 -0.6018
vn -0.9819 0.1468 0.1199
vn -0.8933 0.4456 -0.0583
vn -0.6926 0.3339 0.6394
vn -0.9877 0.1549 -0.0203
vn -0.0911 0.1373 -0.9863
vn 0.0636 -0.0963 -0.9933
vn 0.4539 0.3256 -0.8294
vn 0.9720 0.1586 0.1734
vn 0.7683 0.2675 -0.5815
vn 0.9200 0.3778 -0.1041
vn 0.7394 0.1801 0.6488
vn 0.6740 0.4324 0.5990
vn 0.0970 0.2646 0.9595
vn -0.9885 0.0461 0.1437
vn -0.7624 0.0883 -0.6411
vn -0.3701 0.5509 -0.7480
vn -0.7870 0.3454 0.5112
vn -0.6399 0.2741 0.7179
vn -0.1251 0.4410 0.8888
vn 0.8881 0.4381 -0.1391
vn 0.7337 0.0289 -0.6789
vn 0.0084 0.0537 -0.9985
vn 0.4615 0.5117 -0.7246
vn 0.0100 0.2752 -0.9613
vn 0.0013 0.5864 -0.8100
vn 0.4921 0.3762 0.7851
vn 0.6257 0.2927 0.7231
vn 0.9796 0.1523 0.1311
vn 0.5893 0.3801 0.7130
vn 0.0023 -0.9815 -0.1915
vn 0.4096 -0.9112 -0.0435
vn 0.4789 -0.8705 -0.1138
vn 0.6972 -0.7001 0.1542
vn 0.8316 -0.5360 0.1456
vn 0.3815 -0.8266 0.4137
vn -0.4340 -0.8112 0.3919
vn -0.0054 -0.8948 0.4465
vn -0.0058 -0.8793 0.4762
vn 0.2819 -0.8863 0.3675
vn -0.4682 -0.8756 -0.1185
vn -0.8657 -0.4886 0.1085
vn -0.7282 -0.6746 0.1209
vn -0.3037 -0.8888 0.3433
vn -0.4155 -0.9082 -0.0505
vn 0.0027 -0.9767 -0.2148
vn -0.4119 0.5758 0.7063
vn -0.7203 0.3450 0.6018
vn -0.6240 0.2720 0.7326
vn -0.1296 0.3600 0.9239
vn -0.4733 0.5507 -0.6875
vn -0.5394 0.4353 -0.7208
vn -0.5752 -0.0031 -0.8180
vn 0.0517 0.2977 0.9532
vn -0.0198 0.4144 0.9099
vn -0.0110 0.4303 0.9026
vn -0.3857 0.4621 0.7986
vn -0.3456 0.3429 0.8735
vn -0.4119 0.5757 0.7063
vn -0.4911 0.8692 0.0571
vn -0.2918 0.2016 -0.9350
vn 0.0108 0.6381 -0.7699
vn -0.7015 0.6496 -0.2933
vn -0.6100 0.6271 -0.4845
vn -0.0722 0.8183 -0.5703
vn 0.3825 -0.0682 -0.9214
vn 0.3143 0.2023 -0.9275
vn 0.7089 0.6528 -0.2670
vn 0.0868 0.8206 -0.5649
vn 0.6223 0.6279 -0.4674
vn 0.3667 0.4629 0.8070
vn 0.3262 0.3397 0.8821
vn 0.3951 0.5765 0.7152
vn 0.4936 0.8673 0.0650
usemtl mesh0404mat.001
s 1
f 3/1/1 4/2/2 5/3/3
f 6/4/4 7/5/5 8/6/6
f 9/7/7 10/8/8 11/9/9
f 12/10/10 13/11/11 14/12/12
f 17/13/13 18/14/14 19/15/15
f 8/6/6 25/16/16 26/17/17
f 25/16/16 24/18/18 26/17/17
f 3/1/1 5/3/3 31/19/19
f 5/3/3 32/20/20 31/19/19
f 31/19/19 32/20/20 33/21/21
f 34/22/22 11/9/9 35/23/23
f 11/9/9 10/8/8 35/23/23
f 35/23/23 10/8/8 36/24/24
f 14/12/12 13/11/11 37/25/25
f 13/11/11 38/26/26 37/25/25
f 37/25/25 38/26/26 39/27/27
f 15/28/28 40/29/29 29/30/30
f 29/30/30 40/29/29 41/31/31
f 19/32/32 32/33/33 42/34/34
f 32/33/33 5/35/35 42/34/34
f 42/34/34 5/35/35 43/36/36
f 5/35/35 44/37/37 43/36/36
f 21/38/38 45/39/39 38/40/40
f 45/39/39 44/37/37 38/40/40
f 38/40/40 44/37/37 4/41/41
f 44/37/37 5/35/35 4/41/41
f 46/42/42 20/43/43 12/44/44
f 20/43/43 21/38/38 12/44/44
f 12/44/44 21/38/38 13/45/45
f 21/38/38 38/40/40 13/45/45
f 12/44/44 17/46/46 46/42/42
f 17/46/46 19/32/32 46/42/42
f 46/42/42 19/32/32 47/47/47
f 19/32/32 42/34/34 47/47/47
f 22/48/48 25/16/16 48/49/49
f 25/16/16 8/6/6 48/49/49
f 48/49/49 8/6/6 49/50/50
f 8/6/6 7/5/5 49/50/50
f 49/50/50 7/5/5 50/51/51
f 38/52/26 51/53/52 39/54/27
f 51/53/52 52/55/53 39/54/27
f 39/54/27 52/55/53 9/56/7
f 52/55/53 53/57/54 9/56/7
f 9/56/7 53/57/54 10/58/8
f 53/57/54 36/59/24 10/58/8
f 17/13/13 12/10/10 18/14/14
f 12/10/10 14/12/12 18/14/14
f 18/14/14 14/12/12 34/22/22
f 14/12/12 37/25/25 34/22/22
f 34/22/22 37/25/25 11/9/9
f 37/25/25 39/27/27 11/9/9
f 11/9/9 39/27/27 9/7/7
f 50/51/51 54/60/55 49/50/50
f 54/60/55 55/61/56 49/50/50
f 49/50/50 55/61/56 48/49/49
f 55/61/56 56/62/57 48/49/49
f 48/49/49 56/62/57 22/48/58
f 56/62/57 2/63/59 22/48/58
f 22/48/60 2/63/59 23/64/61
f 51/53/52 6/4/4 52/55/53
f 6/4/4 8/6/6 52/55/53
f 52/55/53 8/6/6 53/57/54
f 8/6/6 26/17/17 53/57/54
f 53/57/54 26/17/17 36/59/24
f 26/17/17 24/18/62 36/59/24
f 36/59/24 24/18/62 57/65/63
f 24/18/64 23/64/65 57/65/66
f 32/20/20 19/15/15 33/21/21
f 19/15/15 18/14/14 33/21/21
f 33/21/21 18/14/14 41/31/31
f 18/14/14 34/22/22 41/31/31
f 41/31/31 34/22/22 29/30/30
f 34/22/22 35/23/23 29/30/30
f 29/30/30 35/23/23 30/66/67
f 35/23/23 36/24/24 30/66/67
f 30/66/67 36/24/24 28/67/68
f 36/24/24 57/68/63 28/67/68
f 28/67/69 57/68/70 27/69/71
f 38/52/26 4/2/2 51/53/52
f 4/2/2 3/1/1 51/53/52
f 51/53/52 3/1/1 6/4/4
f 3/1/1 31/19/19 6/4/4
f 6/4/4 31/19/19 7/5/5
f 31/19/19 33/21/21 7/5/5
f 7/5/5 33/21/21 50/51/51
f 33/21/21 41/31/31 50/51/51
f 50/51/51 41/31/31 54/60/55
f 41/31/31 40/29/29 54/60/55
f 54/60/55 40/29/29 55/61/56
f 40/29/29 15/28/28 55/61/56
f 55/61/56 15/28/28 56/62/57
f 15/28/28 16/70/72 56/62/57
f 56/62/57 16/70/72 2/63/73
f 16/70/74 27/69/75 2/63/73
l 1 2
