# Blender v2.81 (sub 16) OBJ File: ''
# www.blender.org
mtllib l_arm.mtl
o vsn_mesh_2__mesh_2_.004
v -0.259343 -0.582065 0.047917
v -0.062333 -0.520938 -0.405091
v 0.048857 -0.330397 -0.383314
v -0.235105 -0.310188 0.402603
v -0.001367 -0.514638 0.221793
v 0.052772 -0.253958 0.306013
v 0.058091 -0.022808 0.378373
v 0.200516 -0.154027 0.024776
v 0.153405 0.187222 0.093583
v 0.144658 0.008663 -0.337563
v 0.075336 -0.369157 -0.438732
v -0.107520 -0.392087 -0.455201
v 0.182106 -0.466648 -0.090862
v -0.010013 -0.617891 0.163183
v -0.233289 -0.614829 0.058186
v -0.259343 -0.582065 0.047917
v -0.260735 -0.638819 -0.242857
v -0.223264 -1.001294 -0.078069
v -0.023227 -0.909142 0.118253
v 0.162746 -0.793680 -0.095506
v 0.077209 -0.502187 -0.430240
v 0.061959 -1.005801 -0.358535
v 0.144435 -1.004812 -0.085339
v -0.025187 -1.027420 0.114893
v -0.210155 -1.320265 -0.001523
v -0.028780 -1.296875 0.165792
v 0.157487 -1.321617 -0.001102
v 0.058012 -1.161409 -0.329969
v -0.121293 -1.008755 -0.357011
v -0.117567 -1.161025 -0.325562
v 0.066877 -1.449479 -0.232545
v -0.128151 -1.446655 -0.237294
v -0.159154 -1.567196 -0.119014
v 0.106713 -1.566884 -0.122237
v 0.211512 -1.468696 0.075967
v 0.204070 -1.442371 0.157532
v 0.144241 -1.416044 0.208573
v 0.107466 -1.370643 0.250103
v -0.028792 -1.331046 0.274313
v -0.163813 -1.374377 0.251542
v -0.196062 -1.418236 0.212183
v -0.255065 -1.443900 0.160172
v -0.261682 -1.469563 0.077630
v -0.128151 -1.446655 -0.237294
v -0.159154 -1.567196 -0.119014
v -0.117567 -1.161025 -0.325562
v -0.121293 -1.008755 -0.357011
v -0.107669 -0.526657 -0.449615
v -0.107520 -0.392087 -0.455201
v -0.260735 -0.638819 -0.242857
v 0.048857 -0.330397 -0.383314
v -0.259343 -0.582065 0.047917
v -0.107520 -0.392087 -0.455201
v 0.048857 -0.330397 -0.383314
v 0.144658 0.008663 -0.337563
v 0.075336 -0.369157 -0.438732
v -0.107669 -0.526657 -0.449615
v 0.077209 -0.502187 -0.430240
v 0.182106 -0.466648 -0.090862
v 0.061959 -1.005801 -0.358535
v -0.121293 -1.008755 -0.357011
v 0.106713 -1.566884 -0.122237
v 0.211512 -1.468696 0.075967
v 0.191211 -1.561363 0.078128
v 0.185682 -1.561362 0.177652
v 0.204070 -1.442371 0.157532
v 0.144241 -1.416044 0.208573
v 0.123266 -1.561362 0.238173
v -0.023494 -1.621125 0.087772
v 0.106414 -1.561362 0.302382
v 0.049401 -1.561362 0.350312
v -0.020017 -1.561362 0.343362
v -0.079133 -1.561362 0.355742
v -0.023175 -1.409883 0.340032
v 0.084349 -1.414117 0.307142
v 0.107466 -1.370643 0.250103
v -0.028792 -1.331046 0.274313
v -0.123837 -1.412706 0.316672
v -0.150514 -1.561362 0.315852
v -0.185924 -1.561362 0.234712
v -0.238871 -1.561362 0.175722
v -0.253055 -1.561363 0.078127
v -0.159154 -1.567196 -0.119014
v 0.106713 -1.566884 -0.122237
v -0.163813 -1.374377 0.251542
v -0.196062 -1.418236 0.212183
v -0.255065 -1.443900 0.160172
v -0.261682 -1.469563 0.077630
v -0.159154 -1.567196 -0.119014
v 0.144241 -1.416044 0.208573
v 0.157487 -1.321617 -0.001102
v 0.107466 -1.370643 0.250103
v -0.259343 -0.582065 0.047917
v -0.062333 -0.520938 -0.405091
v 0.048857 -0.330397 -0.383314
v -0.235105 -0.310188 0.402603
v -0.001367 -0.514638 0.221793
v 0.052772 -0.253958 0.306013
v 0.058091 -0.022808 0.378373
v 0.200516 -0.154027 0.024776
v 0.153405 0.187222 0.093583
v 0.144658 0.008663 -0.337563
v 0.075336 -0.369157 -0.438732
v -0.107520 -0.392087 -0.455201
v 0.182106 -0.466648 -0.090862
v -0.010013 -0.617891 0.163183
v -0.233289 -0.614829 0.058186
v -0.259343 -0.582065 0.047917
v -0.260735 -0.638819 -0.242857
v -0.223264 -1.001294 -0.078069
v -0.023227 -0.909142 0.118253
v 0.162746 -0.793680 -0.095506
v 0.077209 -0.502187 -0.430240
v 0.061959 -1.005801 -0.358535
v 0.144435 -1.004812 -0.085339
v -0.025187 -1.027420 0.114893
v -0.210155 -1.320265 -0.001523
v -0.028780 -1.296875 0.165792
v 0.157487 -1.321617 -0.001102
v 0.058012 -1.161409 -0.329969
v -0.121293 -1.008755 -0.357011
v -0.117567 -1.161025 -0.325562
v 0.066877 -1.449479 -0.232545
v -0.128151 -1.446655 -0.237294
v -0.159154 -1.567196 -0.119014
v 0.106713 -1.566884 -0.122237
v 0.211512 -1.468696 0.075967
v 0.204070 -1.442371 0.157532
v 0.144241 -1.416044 0.208573
v 0.107466 -1.370643 0.250103
v -0.028792 -1.331046 0.274313
v -0.163813 -1.374377 0.251542
v -0.196062 -1.418236 0.212183
v -0.255065 -1.443900 0.160172
v -0.261682 -1.469563 0.077630
v -0.128151 -1.446655 -0.237294
v -0.159154 -1.567196 -0.119014
v -0.117567 -1.161025 -0.325562
v -0.121293 -1.008755 -0.357011
v -0.107669 -0.526657 -0.449615
v -0.107520 -0.392087 -0.455201
v -0.260735 -0.638819 -0.242857
v 0.048857 -0.330397 -0.383314
v -0.259343 -0.582065 0.047917
v -0.107520 -0.392087 -0.455201
v 0.048857 -0.330397 -0.383314
v 0.144658 0.008663 -0.337563
v 0.075336 -0.369157 -0.438732
v -0.107669 -0.526657 -0.449615
v 0.077209 -0.502187 -0.430240
v 0.182106 -0.466648 -0.090862
v 0.061959 -1.005801 -0.358535
v -0.121293 -1.008755 -0.357011
v 0.106713 -1.566884 -0.122237
v 0.211512 -1.468696 0.075967
v 0.191211 -1.561363 0.078128
v 0.185682 -1.561362 0.177652
v 0.204070 -1.442371 0.157532
v 0.144241 -1.416044 0.208573
v 0.123266 -1.561362 0.238173
v -0.023494 -1.621125 0.087772
v 0.106414 -1.561362 0.302382
v 0.049401 -1.561362 0.350312
v -0.020017 -1.561362 0.343362
v -0.079133 -1.561362 0.355742
v -0.023175 -1.409883 0.340032
v 0.084349 -1.414117 0.307142
v 0.107466 -1.370643 0.250103
v -0.028792 -1.331046 0.274313
v -0.123837 -1.412706 0.316672
v -0.150514 -1.561362 0.315852
v -0.185924 -1.561362 0.234712
v -0.238871 -1.561362 0.175722
v -0.253055 -1.561363 0.078127
v -0.159154 -1.567196 -0.119014
v 0.106713 -1.566884 -0.122237
v -0.163813 -1.374377 0.251542
v -0.196062 -1.418236 0.212183
v -0.255065 -1.443900 0.160172
v -0.261682 -1.469563 0.077630
v -0.159154 -1.567196 -0.119014
v 0.144241 -1.416044 0.208573
v 0.157487 -1.321617 -0.001102
v 0.107466 -1.370643 0.250103
v 0.144658 0.008663 -0.337563
v -0.235105 -0.310188 0.402603
v 0.058091 -0.022808 0.378373
v 0.153405 0.187222 0.093583
v 0.144658 0.008663 -0.337563
v -0.235105 -0.310188 0.402603
v 0.058091 -0.022808 0.378373
v 0.153405 0.187222 0.093583
vt 0.679748 0.085385
vt 0.698798 0.129855
vt 0.699071 0.189234
vt 0.836223 0.819741
vt 0.851000 0.740472
vt 0.853593 0.826412
vt 0.853127 0.881795
vt 0.868496 0.843397
vt 0.868496 0.931569
vt 0.890661 0.880572
vt 0.890661 0.790248
vt 0.905078 0.790248
vt 0.870541 0.749630
vt 0.851000 0.708172
vt 0.838823 0.716136
vt 0.830553 0.786244
vt 0.827058 0.715266
vt 0.836260 0.591279
vt 0.851000 0.611455
vt 0.868496 0.649693
vt 0.890661 0.750000
vt 0.890661 0.602663
vt 0.868496 0.591705
vt 0.851000 0.577739
vt 0.836260 0.467954
vt 0.851000 0.480680
vt 0.868496 0.471655
vt 0.890661 0.548857
vt 0.905078 0.602663
vt 0.905078 0.548857
vt 0.890661 0.437500
vt 0.905078 0.437500
vt 0.905078 0.381102
vt 0.890661 0.381102
vt 0.868559 0.400689
vt 0.865159 0.403140
vt 0.861008 0.410680
vt 0.858761 0.428323
vt 0.850723 0.429290
vt 0.844006 0.428747
vt 0.841093 0.411408
vt 0.837392 0.402766
vt 0.835090 0.400854
vt 0.813547 0.437500
vt 0.813547 0.381102
vt 0.813547 0.548857
vt 0.813547 0.602663
vt 0.813547 0.750000
vt 0.813547 0.881011
vt 0.827058 0.715266
vt 0.820811 0.881011
vt 0.830553 0.786244
vt 0.905078 0.790248
vt 0.904962 0.880630
vt 0.890661 0.880572
vt 0.890661 0.790248
vt 0.905078 0.750000
vt 0.890661 0.750000
vt 0.870541 0.749630
vt 0.890661 0.602663
vt 0.905078 0.602663
vt 0.560324 0.650059
vt 0.560672 0.755518
vt 0.555644 0.719209
vt 0.555017 0.755260
vt 0.558699 0.799703
vt 0.553319 0.816381
vt 0.548003 0.777555
vt 0.531173 0.722832
vt 0.546064 0.797832
vt 0.539593 0.815309
vt 0.531679 0.812895
vt 0.524948 0.817495
vt 0.531908 0.836838
vt 0.540036 0.832800
vt 0.545401 0.858154
vt 0.531943 0.867453
vt 0.522972 0.833445
vt 0.516877 0.803223
vt 0.513936 0.776539
vt 0.506721 0.755179
vt 0.505073 0.719561
vt 0.515750 0.647855
vt 0.545983 0.646611
vt 0.517012 0.857757
vt 0.510401 0.814537
vt 0.504945 0.799608
vt 0.501064 0.755145
vt 0.501120 0.647910
vt 0.861008 0.410680
vt 0.868496 0.471655
vt 0.858761 0.428323
vt 0.359497 0.085385
vt 0.397596 0.129855
vt 0.398142 0.189234
vt 0.672446 0.819741
vt 0.702001 0.740472
vt 0.707187 0.826412
vt 0.706255 0.881795
vt 0.736991 0.843397
vt 0.736991 0.931569
vt 0.781323 0.880572
vt 0.781323 0.790248
vt 0.810156 0.790248
vt 0.741081 0.749630
vt 0.702001 0.708172
vt 0.677647 0.716136
vt 0.661105 0.786244
vt 0.654117 0.715266
vt 0.672520 0.591279
vt 0.702001 0.611455
vt 0.736991 0.649693
vt 0.781323 0.750000
vt 0.781323 0.602663
vt 0.736991 0.591705
vt 0.702001 0.577739
vt 0.672520 0.467954
vt 0.702001 0.480680
vt 0.736991 0.471655
vt 0.781323 0.548857
vt 0.810156 0.602663
vt 0.810156 0.548857
vt 0.781323 0.437500
vt 0.810156 0.437500
vt 0.810156 0.381102
vt 0.781323 0.381102
vt 0.737118 0.400689
vt 0.730319 0.403140
vt 0.722016 0.410680
vt 0.717522 0.428323
vt 0.701446 0.429290
vt 0.688011 0.428747
vt 0.682186 0.411408
vt 0.674783 0.402766
vt 0.670180 0.400854
vt 0.627095 0.437500
vt 0.627095 0.381102
vt 0.627095 0.548857
vt 0.627095 0.602663
vt 0.627095 0.750000
vt 0.627095 0.881011
vt 0.654117 0.715266
vt 0.641622 0.881011
vt 0.661105 0.786244
vt 0.810156 0.790248
vt 0.809925 0.880630
vt 0.781323 0.880572
vt 0.781323 0.790248
vt 0.810156 0.750000
vt 0.781323 0.750000
vt 0.741081 0.749630
vt 0.781323 0.602663
vt 0.810156 0.602663
vt 0.120647 0.650059
vt 0.121344 0.755518
vt 0.111288 0.719209
vt 0.110034 0.755260
vt 0.117399 0.799703
vt 0.106638 0.816381
vt 0.096167 0.777555
vt 0.062347 0.722832
vt 0.092128 0.797832
vt 0.079186 0.814641
vt 0.063358 0.812895
vt 0.052575 0.821165
vt 0.063816 0.836838
vt 0.080073 0.832800
vt 0.090801 0.858154
vt 0.063886 0.867453
vt 0.045945 0.833445
vt 0.033754 0.802222
vt 0.027872 0.776539
vt 0.015444 0.755179
vt 0.012649 0.719561
vt 0.031500 0.647855
vt 0.091965 0.646611
vt 0.034024 0.857757
vt 0.020803 0.814537
vt 0.009890 0.799608
vt 0.002129 0.755145
vt 0.002240 0.647910
vt 0.722016 0.410680
vt 0.736991 0.471655
vt 0.717522 0.428323
vn 0.8133 -0.5072 0.2852
vn 0.1684 -0.4983 0.8505
vn 0.4199 -0.5313 0.7358
vn 0.6721 -0.2792 0.6858
vn 0.8019 -0.1309 0.5830
vn 0.9913 -0.0367 0.1263
vn 0.9817 0.1032 0.1603
vn 0.9514 0.0169 -0.3076
vn 0.5813 0.1447 -0.8007
vn 0.0559 0.2487 -0.9670
vn 0.9900 -0.1035 0.0955
vn 0.2967 -0.3321 0.8954
vn -0.7272 -0.4421 0.5250
vn -0.7922 -0.5420 0.2805
vn -0.9295 -0.1335 -0.3438
vn -0.9727 -0.1183 0.1995
vn 0.1179 -0.1401 0.9831
vn 0.9800 -0.0694 0.1865
vn 0.9527 -0.0620 -0.2974
vn 0.7663 -0.1358 -0.6279
vn 0.9846 -0.0072 0.1746
vn 0.0348 0.1109 0.9932
vn -0.9671 0.2464 0.0632
vn -0.0119 0.7932 0.6089
vn 0.9660 0.2570 0.0294
vn 0.5593 -0.2046 -0.8033
vn -0.0158 -0.1924 -0.9812
vn -0.0169 -0.2581 -0.9660
vn 0.5072 -0.3812 -0.7730
vn 0.0132 -0.5238 -0.8518
vn 0.0004 -0.6946 -0.7194
vn 0.6335 -0.4047 -0.6595
vn 0.9550 0.2091 -0.2101
vn 0.7719 0.5943 0.2257
vn 0.6138 0.7046 0.3561
vn 0.3303 0.9073 0.2601
vn -0.0137 0.9537 0.3003
vn -0.5710 0.7727 0.2773
vn -0.7957 0.5290 0.2950
vn -0.7773 0.5850 0.2314
vn -0.9628 0.1887 -0.1934
vn -0.9376 -0.0493 -0.3443
vn -0.9054 -0.1549 -0.3952
vn -0.9415 -0.0910 -0.3244
vn -0.9066 -0.1505 -0.3942
vn -0.7900 -0.0487 -0.6112
vn -0.7399 0.6395 0.2091
vn -0.7398 0.6394 0.2091
vn -0.7102 0.7037 -0.0203
vn -0.6225 0.7404 0.2537
vn -0.7285 0.6730 -0.1279
vn -0.0865 -0.0650 -0.9941
vn -0.4160 -0.0052 0.9094
vn 0.5927 -0.0376 -0.8045
vn 0.0983 -0.1059 -0.9895
vn 0.4598 -0.0796 -0.8845
vn 0.9555 -0.0054 -0.2948
vn 0.0237 -0.1786 -0.9836
vn -0.0051 -0.1885 -0.9821
vn 0.9035 -0.2067 -0.3753
vn 0.9793 -0.1860 -0.0802
vn 0.7500 -0.6500 -0.1223
vn 0.7225 -0.5732 0.3866
vn 0.8649 -0.0492 0.4995
vn 0.8016 0.0798 0.5924
vn 0.6631 -0.6628 0.3478
vn 0.0061 -1.0000 -0.0034
vn 0.6857 -0.5465 0.4808
vn 0.2608 -0.5220 0.8121
vn 0.0403 -0.6437 0.7642
vn -0.1412 -0.5299 0.8362
vn 0.0327 0.4010 0.9155
vn 0.5600 0.3629 0.7448
vn 0.6603 0.4437 0.6058
vn 0.0040 0.6813 0.7320
vn -0.5027 0.3743 0.7792
vn -0.6128 -0.5325 0.5839
vn -0.6619 -0.6279 0.4094
vn -0.7272 -0.5751 0.3749
vn -0.7943 -0.5970 -0.1127
vn -0.1278 -0.9770 -0.1710
vn 0.1298 -0.9766 -0.1718
vn -0.6935 0.3484 0.6307
vn -0.7916 0.0680 0.6072
vn -0.8676 -0.0542 0.4943
vn -0.9911 -0.1040 -0.0835
vn -0.9004 -0.0869 -0.4263
vn 0.8526 0.4542 0.2584
usemtl Cat_all_mat.006
s 1
f 1/1/1 2/2/1 3/3/1
f 4/4/2 5/5/3 6/6/4
f 4/4/2 6/6/4 7/7/5
f 7/7/5 6/6/4 8/8/6
f 7/7/5 8/8/6 9/9/7
f 9/9/7 8/8/6 10/10/8
f 10/10/8 11/11/9 12/12/10
f 8/8/6 11/11/9 10/10/8
f 8/8/6 13/13/11 11/11/9
f 6/6/4 13/13/11 8/8/6
f 5/5/3 13/13/11 6/6/4
f 5/5/3 14/14/12 13/13/11
f 5/5/3 15/15/13 14/14/12
f 15/15/13 5/5/3 4/4/2
f 16/16/14 15/15/13 4/4/2
f 15/15/13 16/16/14 17/17/15
f 15/15/13 17/17/15 18/18/16
f 15/15/13 18/18/16 19/19/17
f 15/15/13 19/19/17 14/14/12
f 14/14/12 19/19/17 13/13/11
f 13/13/11 19/19/17 20/20/18
f 20/20/18 21/21/19 13/13/11
f 22/22/20 21/21/19 20/20/18
f 20/20/18 23/23/21 22/22/20
f 23/23/21 20/20/18 19/19/17
f 19/19/17 24/24/22 23/23/21
f 19/19/17 18/18/16 24/24/22
f 24/24/22 18/18/16 25/25/23
f 24/24/22 25/25/23 26/26/24
f 27/27/25 24/24/22 26/26/24
f 23/23/21 24/24/22 27/27/25
f 28/28/26 23/23/21 27/27/25
f 22/22/20 23/23/21 28/28/26
f 29/29/27 22/22/20 28/28/26
f 29/29/27 28/28/26 30/30/28
f 30/30/28 28/28/26 31/31/29
f 30/30/28 31/31/29 32/32/30
f 31/31/29 33/33/31 32/32/30
f 31/31/29 34/34/32 33/33/31
f 34/34/32 31/31/29 35/35/33
f 31/31/29 27/27/25 35/35/33
f 28/28/26 27/27/25 31/31/29
f 36/36/34 27/27/25 37/37/35
f 35/35/33 27/27/25 36/36/34
f 26/26/24 38/38/36 27/27/25
f 39/39/37 38/38/36 26/26/24
f 26/26/24 40/40/38 39/39/37
f 26/26/24 25/25/23 40/40/38
f 41/41/39 40/40/38 25/25/23
f 41/41/39 25/25/23 42/42/40
f 42/42/40 25/25/23 43/43/41
f 43/43/41 25/25/23 44/44/42
f 45/45/43 43/43/41 44/44/42
f 25/25/23 46/46/44 44/44/42
f 18/18/16 46/46/44 25/25/23
f 47/47/45 46/46/44 18/18/16
f 18/18/16 17/17/15 47/47/45
f 48/48/46 47/47/45 17/17/15
f 17/17/15 49/49/47 48/48/46
f 49/49/48 50/50/49 51/51/50
f 50/50/49 52/52/51 51/51/50
f 53/53/52 54/54/53 55/55/53
f 53/53/52 56/56/54 57/57/55
f 56/56/54 58/58/56 57/57/55
f 59/59/57 58/58/56 56/56/54
f 58/58/56 60/60/58 57/57/55
f 57/57/55 60/60/58 61/61/59
f 62/62/60 63/63/61 64/64/62
f 63/63/61 65/65/63 64/64/62
f 65/65/63 63/63/61 66/66/64
f 65/65/63 66/66/64 67/67/65
f 65/65/63 67/67/65 68/68/66
f 68/68/66 69/69/67 65/65/63
f 70/70/68 69/69/67 68/68/66
f 71/71/69 69/69/67 70/70/68
f 72/72/70 69/69/67 71/71/69
f 73/73/71 69/69/67 72/72/70
f 74/74/72 73/73/71 72/72/70
f 71/71/69 74/74/72 72/72/70
f 71/71/69 75/75/73 74/74/72
f 75/75/73 71/71/69 70/70/68
f 67/67/65 75/75/73 70/70/68
f 68/68/66 67/67/65 70/70/68
f 76/76/74 75/75/73 67/67/65
f 75/75/73 76/76/74 77/77/75
f 75/75/73 77/77/75 74/74/72
f 78/78/76 74/74/72 77/77/75
f 78/78/76 73/73/71 74/74/72
f 73/73/71 78/78/76 79/79/77
f 79/79/77 69/69/67 73/73/71
f 80/80/78 69/69/67 79/79/77
f 81/81/79 69/69/67 80/80/78
f 69/69/67 81/81/79 82/82/80
f 83/83/81 69/69/67 82/82/80
f 83/83/81 84/84/82 69/69/67
f 69/69/67 84/84/82 64/64/62
f 69/69/67 64/64/62 65/65/63
f 78/78/76 85/85/83 86/86/84
f 79/79/77 78/78/76 86/86/84
f 80/80/78 79/79/77 86/86/84
f 86/86/84 81/81/79 80/80/78
f 86/86/84 87/87/85 81/81/79
f 87/87/85 88/88/86 81/81/79
f 81/81/79 88/88/86 82/82/80
f 89/89/87 82/82/80 88/88/86
f 90/90/88 91/91/88 92/92/88
f 85/85/83 78/78/76 77/77/75
usemtl Cat_all_mat.007
f 93/93/1 94/94/1 95/95/1
f 96/96/2 97/97/3 98/98/4
f 96/96/2 98/98/4 99/99/5
f 99/99/5 98/98/4 100/100/6
f 99/99/5 100/100/6 101/101/7
f 101/101/7 100/100/6 102/102/8
f 102/102/8 103/103/9 104/104/10
f 100/100/6 103/103/9 102/102/8
f 100/100/6 105/105/11 103/103/9
f 98/98/4 105/105/11 100/100/6
f 97/97/3 105/105/11 98/98/4
f 97/97/3 106/106/12 105/105/11
f 97/97/3 107/107/13 106/106/12
f 107/107/13 97/97/3 96/96/2
f 108/108/14 107/107/13 96/96/2
f 107/107/13 108/108/14 109/109/15
f 107/107/13 109/109/15 110/110/16
f 107/107/13 110/110/16 111/111/17
f 107/107/13 111/111/17 106/106/12
f 106/106/12 111/111/17 105/105/11
f 105/105/11 111/111/17 112/112/18
f 112/112/18 113/113/19 105/105/11
f 114/114/20 113/113/19 112/112/18
f 112/112/18 115/115/21 114/114/20
f 115/115/21 112/112/18 111/111/17
f 111/111/17 116/116/22 115/115/21
f 111/111/17 110/110/16 116/116/22
f 116/116/22 110/110/16 117/117/23
f 116/116/22 117/117/23 118/118/24
f 119/119/25 116/116/22 118/118/24
f 115/115/21 116/116/22 119/119/25
f 120/120/26 115/115/21 119/119/25
f 114/114/20 115/115/21 120/120/26
f 121/121/27 114/114/20 120/120/26
f 121/121/27 120/120/26 122/122/28
f 122/122/28 120/120/26 123/123/29
f 122/122/28 123/123/29 124/124/30
f 123/123/29 125/125/31 124/124/30
f 123/123/29 126/126/32 125/125/31
f 126/126/32 123/123/29 127/127/33
f 123/123/29 119/119/25 127/127/33
f 120/120/26 119/119/25 123/123/29
f 128/128/34 119/119/25 129/129/35
f 127/127/33 119/119/25 128/128/34
f 118/118/24 130/130/36 119/119/25
f 131/131/37 130/130/36 118/118/24
f 118/118/24 132/132/38 131/131/37
f 118/118/24 117/117/23 132/132/38
f 133/133/39 132/132/38 117/117/23
f 133/133/39 117/117/23 134/134/40
f 134/134/40 117/117/23 135/135/41
f 135/135/41 117/117/23 136/136/42
f 137/137/43 135/135/41 136/136/42
f 117/117/23 138/138/44 136/136/42
f 110/110/16 138/138/44 117/117/23
f 139/139/45 138/138/44 110/110/16
f 110/110/16 109/109/15 139/139/45
f 140/140/46 139/139/45 109/109/15
f 109/109/15 141/141/47 140/140/46
f 141/141/48 142/142/49 143/143/50
f 142/142/49 144/144/51 143/143/50
f 145/145/52 146/146/53 147/147/53
f 145/145/52 148/148/54 149/149/55
f 148/148/54 150/150/56 149/149/55
f 151/151/57 150/150/56 148/148/54
f 150/150/56 152/152/58 149/149/55
f 149/149/55 152/152/58 153/153/59
f 154/154/60 155/155/61 156/156/62
f 155/155/61 157/157/63 156/156/62
f 157/157/63 155/155/61 158/158/64
f 157/157/63 158/158/64 159/159/65
f 157/157/63 159/159/65 160/160/66
f 160/160/66 161/161/67 157/157/63
f 162/162/68 161/161/67 160/160/66
f 163/163/69 161/161/67 162/162/68
f 164/164/70 161/161/67 163/163/69
f 165/165/71 161/161/67 164/164/70
f 166/166/72 165/165/71 164/164/70
f 163/163/69 166/166/72 164/164/70
f 163/163/69 167/167/73 166/166/72
f 167/167/73 163/163/69 162/162/68
f 159/159/65 167/167/73 162/162/68
f 160/160/66 159/159/65 162/162/68
f 168/168/74 167/167/73 159/159/65
f 167/167/73 168/168/74 169/169/75
f 167/167/73 169/169/75 166/166/72
f 170/170/76 166/166/72 169/169/75
f 170/170/76 165/165/71 166/166/72
f 165/165/71 170/170/76 171/171/77
f 171/171/77 161/161/67 165/165/71
f 172/172/78 161/161/67 171/171/77
f 173/173/79 161/161/67 172/172/78
f 161/161/67 173/173/79 174/174/80
f 175/175/81 161/161/67 174/174/80
f 175/175/81 176/176/82 161/161/67
f 161/161/67 176/176/82 156/156/62
f 161/161/67 156/156/62 157/157/63
f 170/170/76 177/177/83 178/178/84
f 171/171/77 170/170/76 178/178/84
f 172/172/78 171/171/77 178/178/84
f 178/178/84 173/173/79 172/172/78
f 178/178/84 179/179/85 173/173/79
f 179/179/85 180/180/86 173/173/79
f 173/173/79 180/180/86 174/174/80
f 181/181/87 174/174/80 180/180/86
f 182/182/88 183/183/88 184/184/88
f 177/177/83 170/170/76 169/169/75
l 192 191
l 190 191
l 93 190
l 189 95
l 188 187
l 186 187
l 1 186
l 185 3
