# Created by MKDS Course Modifier
mtllib Zebra Print Sofa.mtl
g polygon0
usemtl phong13
v -2.545898 2.390137 -1.439453
v -2.508301 2.337158 -1.256348
v -2.04126 2.38916 -1.439453
v -2.031982 2.125732 -1.172852
v -1.330566 2.782959 -1.412354
v -1.252197 2.621094 -1.197998
v 0 2.982178 -1.19873
v 0 2.608154 -0.8317871
v 1.252197 2.621094 -1.197998
v 2 1.596436 -0.4980469
v 2.031982 2.125732 -1.172852
vn 0.001953125 0.9609375 0.2773438
vn -0.390625 0.6132813 0.6855469
vn -0.06835938 0.8164063 0.5722656
vn -0.2734375 0.6582031 0.7011719
vn -0.3027344 0.7636719 0.5703125
vn -0.2910156 0.6914063 0.6601563
vn 0 0.8222656 0.5683594
vn 0 0.5859375 0.8105469
vn 0.2910156 0.6914063 0.6601563
vn 0.234375 0.6933594 0.6816406
vn 0.2734375 0.6582031 0.7011719
vt 0.3496094 -0.3095703
vt 0.3598633 -0.3535156
vt 0.4052734 -0.2792969
vt 0.409668 -0.3876953
vt 0.4921875 -0.1699219
vt 0.5043945 -0.2705078
vt 0.6474609 -0.2070313
vt 0.6474609 -0.3632813
vt 0.7905273 -0.2705078
vt 0.875 -0.6572266
vt 0.8852539 -0.3876953
f 1/1/1 2/2/2 3/3/3
f 2/2/2 4/4/4 3/3/3
f 3/3/3 4/4/4 5/5/5
f 4/4/4 6/6/6 5/5/5
f 5/5/5 6/6/6 7/7/7
f 6/6/6 8/8/8 7/7/7
f 7/7/7 8/8/8 9/9/9
f 8/8/8 10/10/10 9/9/9
f 9/9/9 10/10/10 11/11/11
v -2.545898 2.390137 -1.439453
v -2.708496 1.596436 -1.35791
v -2.508301 2.337158 -1.256348
v -2.406982 1.596436 -0.9331055
v -2.031982 2.125732 -1.172852
v -2 1.596436 -0.4980469
v -1.252197 2.621094 -1.197998
v 0 2.608154 -0.8317871
vn -0.9414063 0.21875 0.2558594
vn -0.8886719 0.1816406 0.421875
vn -0.390625 0.6132813 0.6855469
vn -0.2792969 0.8652344 0.4179688
vn -0.2734375 0.6582031 0.7011719
vn -0.234375 0.6933594 0.6816406
vn -0.2910156 0.6914063 0.6601563
vn 0 0.5859375 0.8105469
vt 0.3496094 -0.3095703
vt 0.3110352 -0.5
vt 0.3598633 -0.3535156
vt 0.3623047 -0.5654297
vt 0.409668 -0.3876953
vt 0.4199219 -0.6572266
vt 0.5043945 -0.2705078
vt 0.6474609 -0.3632813
f 12/12/12 13/13/13 14/14/14
f 13/13/13 15/15/15 14/14/14
f 14/14/14 15/15/15 16/16/16
f 15/15/15 17/17/17 16/16/16
f 16/16/16 17/17/17 18/18/18
f 17/17/17 19/19/19 18/18/18
v 2.545898 2.390137 -1.439453
v 2.04126 2.389893 -1.439453
v 2.508301 2.337158 -1.256348
v 2.031982 2.125732 -1.172852
v 2.406982 1.596436 -0.9331055
v 2 1.596436 -0.4980469
vn 0 0.9609375 0.2773438
vn 0.06835938 0.8164063 0.5722656
vn 0.390625 0.6132813 0.6855469
vn 0.2734375 0.6582031 0.7011719
vn 0.2792969 0.8652344 0.4179688
vn 0.234375 0.6933594 0.6816406
vt 0.9458008 -0.3095703
vt 0.8901367 -0.2792969
vt 0.9350586 -0.3535156
vt 0.8852539 -0.3876953
vt 0.9326172 -0.5654297
vt 0.875 -0.6572266
f 20/20/20 21/21/21 22/22/22
f 21/21/21 23/23/23 22/22/22
f 22/22/22 23/23/23 24/24/24
f 23/23/23 25/25/25 24/24/24
v 2 0.4101563 1.5
v 2 1 1.5
v 0 0.4101563 1.5
v 0 1 1.5
v -2 1 1.5
vn 0 0 0.9980469
vn 0 0 0.9980469
vn 0 0 0.9980469
vn 0 0 0.9980469
vn 0 0 0.9980469
vt 0.2890625 -0.04492188
vt 0.2211914 -0.04492188
vt 0.2890625 -0.5058594
vt 0.2211914 -0.5058594
vt 0.2211914 -0.9667969
f 26/26/26 27/27/27 28/28/28
f 27/27/27 29/29/29 28/28/28
f 28/28/28 29/29/29 30/30/30
v 0 1 -0.2495117
v 2 1 -0.2495117
v 0 1.521973 -0.3977051
v 2 1.596436 -0.4980469
v 0 2.608154 -0.8317871
vn 0 0.2734375 0.9628906
vn 0.015625 0.3300781 0.9433594
vn 0 0.34375 0.9394531
vn 0.234375 0.6933594 0.6816406
vn 0 0.5859375 0.8105469
vt 0.6474609 -0.8632813
vt 0.8759766 -0.8632813
vt 0.6474609 -0.6972656
vt 0.875 -0.6572266
vt 0.6474609 -0.3632813
f 31/31/31 32/32/32 33/33/33
f 32/32/32 34/34/34 33/33/33
f 33/33/33 34/34/34 35/35/35
v 0 3.050293 -1.415527
v 0 2.982178 -1.19873
v 1.330566 2.782959 -1.412354
v 1.252197 2.621094 -1.197998
v 2.031982 2.125732 -1.172852
vn 0 0.9550781 0.2988281
vn 0 0.8222656 0.5683594
vn 0.3027344 0.7636719 0.5703125
vn 0.2910156 0.6914063 0.6601563
vn 0.2734375 0.6582031 0.7011719
vt 0.6474609 -0.1220703
vt 0.6474609 -0.2070313
vt 0.8027344 -0.1699219
vt 0.7905273 -0.2705078
vt 0.8852539 -0.3876953
f 36/36/36 37/37/37 38/38/38
f 37/37/37 39/39/39 38/38/38
f 38/38/38 39/39/39 40/40/40
v 2 1 -0.2495117
v 0 1 -0.2495117
v 2 1 1.5
v 0 1 1.5
vn 0 0.9980469 0
vn 0 0.9980469 0
vn 0 0.9980469 0
vn 0 0.9980469 0
vt 0.02001953 -0.04492188
vt 0.02001953 -0.5058594
vt 0.2211914 -0.04492188
vt 0.2211914 -0.5058594
f 41/41/41 42/42/42 43/43/43
f 42/42/42 44/44/44 43/43/43
v 2.545898 2.390137 -1.439453
v 2.508301 2.337158 -1.256348
v 2.708496 1.596436 -1.35791
v 2.406982 1.596436 -0.9331055
vn 0.9414063 0.21875 0.2558594
vn 0.390625 0.6132813 0.6855469
vn 0.8886719 0.1816406 0.421875
vn 0.2792969 0.8652344 0.4179688
vt 0.9458008 -0.3095703
vt 0.9350586 -0.3535156
vt 0.9838867 -0.5
vt 0.9326172 -0.5654297
f 45/45/45 46/46/46 47/47/47
f 46/46/46 48/48/48 47/47/47
v -2 1 -0.2495117
v -2 1 1.5
v 0 1 -0.2495117
v 0 1 1.5
vn 0 0.9980469 0
vn 0 0.9980469 0
vn 0 0.9980469 0
vn 0 0.9980469 0
vt 0.02001953 -0.9667969
vt 0.2211914 -0.9667969
vt 0.02001953 -0.5058594
vt 0.2211914 -0.5058594
f 49/49/49 50/50/50 51/51/51
f 50/50/50 52/52/52 51/51/51
v 0 1 -0.2495117
v 0 1.521973 -0.3977051
v -2 1 -0.2495117
v -2 1.596436 -0.4980469
vn 0 0.2734375 0.9628906
vn 0 0.34375 0.9394531
vn -0.015625 0.3300781 0.9433594
vn -0.234375 0.6933594 0.6816406
vt 0.6474609 -0.8632813
vt 0.6474609 -0.6972656
vt 0.4189453 -0.8632813
vt 0.4199219 -0.6572266
f 53/53/53 54/54/54 55/55/55
f 54/54/54 56/56/56 55/55/55
v 0 0.4101563 1.5
v -2 1 1.5
v -2 0.4101563 1.5
v 2.04126 2.389893 -1.439453
v 1.330566 2.782959 -1.412354
v 2.031982 2.125732 -1.172852
v 0 3.050293 -1.415527
v -1.330566 2.782959 -1.412354
v 0 2.982178 -1.19873
v 0 1.521973 -0.3977051
v 0 2.608154 -0.8317871
v -2 1.596436 -0.4980469
vn 0 0 0.9980469
vn 0 0 0.9980469
vn 0 0 0.9980469
vn 0.06835938 0.8164063 0.5722656
vn 0.3027344 0.7636719 0.5703125
vn 0.2734375 0.6582031 0.7011719
vn 0 0.9550781 0.2988281
vn -0.3027344 0.7636719 0.5703125
vn 0 0.8222656 0.5683594
vn 0 0.34375 0.9394531
vn 0 0.5859375 0.8105469
vn -0.234375 0.6933594 0.6816406
vt 0.2890625 -0.5058594
vt 0.2211914 -0.9667969
vt 0.2890625 -0.9667969
vt 0.8901367 -0.2792969
vt 0.8027344 -0.1699219
vt 0.8852539 -0.3876953
vt 0.6474609 -0.1220703
vt 0.4921875 -0.1699219
vt 0.6474609 -0.2070313
vt 0.6474609 -0.6972656
vt 0.6474609 -0.3632813
vt 0.4199219 -0.6572266
f 57/57/57 58/58/58 59/59/59
f 60/60/60 61/61/61 62/62/62
f 63/63/63 64/64/64 65/65/65
f 66/66/66 67/67/67 68/68/68
g polygon1
usemtl phong12
v 2.221436 0.574707 -0.6020508
v 2.341309 0 -0.6396484
v 2.452637 0.574707 -0.697998
v 2.415283 0 -0.8178711
v 2.356934 0.574707 -0.9291992
v 2.236816 0 -0.8918457
v 2.125488 0.574707 -0.8334961
v 2.162842 0 -0.7133789
vn 0.3828125 0.01953125 0.9238281
vn 0.7050781 -0.06445313 0.7070313
vn 0.9238281 -0.04101563 0.3828125
vn 0.9179688 -0.1074219 -0.3808594
vn 0.3828125 -0.04101563 -0.9238281
vn -0.3808594 -0.1074219 -0.9179688
vn -0.7050781 -0.06445313 -0.7070313
vn -0.9140625 -0.1386719 -0.3789063
vt 0.04003906 -0.5908203
vt 0.1943359 -0.5234375
vt 0.04003906 -0.5214844
vt 0.1943359 -0.4697266
vt 0.04003906 -0.4521484
vt 0.1943359 -0.4150391
vt 0.04003906 -0.3818359
vt 0.1943359 -0.3613281
f 69/69/69 70/70/70 71/71/71
f 70/70/70 72/72/72 71/71/71
f 71/71/71 72/72/72 73/73/73
f 72/72/72 74/74/74 73/73/73
f 73/73/73 74/74/74 75/75/75
f 74/74/74 76/76/76 75/75/75
v -2.28125 0.574707 1.083008
v -2.401367 0 1.120605
v -2.512695 0.574707 1.178955
v -2.475098 0 1.298828
v -2.416748 0.574707 1.410156
v -2.296875 0 1.372803
v -2.185547 0.574707 1.314453
v -2.2229 0 1.194336
vn -0.3828125 0.01953125 -0.9238281
vn -0.7050781 -0.06445313 -0.7070313
vn -0.9238281 -0.04101563 -0.3828125
vn -0.9179688 -0.1074219 0.3808594
vn -0.3828125 -0.04101563 0.9238281
vn 0.3808594 -0.1074219 0.9179688
vn 0.7050781 -0.06445313 0.7070313
vn 0.9140625 -0.1386719 0.3789063
vt 0.04003906 -0.5908203
vt 0.1943359 -0.5234375
vt 0.04003906 -0.5214844
vt 0.1943359 -0.4697266
vt 0.04003906 -0.4521484
vt 0.1943359 -0.4150391
vt 0.04003906 -0.3818359
vt 0.1943359 -0.3613281
f 77/77/77 78/78/78 79/79/79
f 78/78/78 80/80/80 79/79/79
f 79/79/79 80/80/80 81/81/81
f 80/80/80 82/82/82 81/81/81
f 81/81/81 82/82/82 83/83/83
f 82/82/82 84/84/84 83/83/83
v 1.330566 2.782959 -1.412354
v 2.04126 2.389893 -1.439453
v 0 3.050293 -1.415527
v 0 2.388672 -1.493164
v -2.04126 2.38916 -1.439453
v -2.708496 1.596436 -1.35791
v -2.545898 2.390137 -1.439453
vn 0.02539063 0.1152344 -0.9921875
vn 0.01953125 0.01171875 -1
vn 0 0.1152344 -0.9941406
vn 0 -0.01953125 -1
vn -0.01953125 0.01171875 -1
vn -0.005859375 -0.1523438 -0.9882813
vn 0 -0.1015625 -0.9941406
vt 0.7119141 -0.5742188
vt 0.828125 -0.6367188
vt 0.4941406 -0.53125
vt 0.4941406 -0.6367188
vt 0.1601563 -0.6367188
vt 0.05078125 -0.7714844
vt 0.07714844 -0.6357422
f 85/85/85 86/86/86 87/87/87
f 86/86/86 88/88/88 87/87/87
f 87/87/87 88/88/88 89/89/89
f 88/88/88 90/90/90 89/89/89
f 89/89/89 90/90/90 91/91/91
v 2 0.4101563 1.5
v 2.708496 0.4101563 1.5
v 2 1 1.5
v 2.708496 1.596436 1.5
v 2 1.596436 1.5
vn 0 0 0.9980469
vn 0 0 0.9980469
vn 0 0 0.9980469
vn 0 0 0.9980469
vn 0 0 0.9980469
vt 0.03027344 -0.1298828
vt 0.03027344 -0.2958984
vt 0.1386719 -0.1298828
vt 0.2998047 -0.2958984
vt 0.2998047 -0.1298828
f 92/92/92 93/93/93 94/94/94
f 93/93/93 95/95/95 94/94/94
f 94/94/94 95/95/95 96/96/96
v -2.708496 1.596436 -1.35791
v -2.708496 1.596436 1.5
v -2.406982 1.596436 -0.9331055
v -2 1.596436 1.5
v -2 1.596436 -0.4980469
vn 0 0.9980469 0
vn 0 0.9980469 0
vn -0.2792969 0.8652344 0.4179688
vn 0 0.9980469 0
vn -0.234375 0.6933594 0.6816406
vt 0.9638672 -0.2958984
vt 0.2998047 -0.2958984
vt 0.8857422 -0.2226563
vt 0.2998047 -0.1298828
vt 0.8056641 -0.1474609
f 97/97/97 98/98/98 99/99/99
f 98/98/98 100/100/100 99/99/99
f 99/99/99 100/100/100 101/101/101
v 2.28125 0.574707 1.083008
v 2.512695 0.574707 1.178955
v 2.401367 0 1.120605
v 2.475098 0 1.298828
vn 0.3828125 0.01953125 -0.9238281
vn 0.9238281 -0.04101563 -0.3828125
vn 0.7050781 -0.06445313 -0.7070313
vn 0.9179688 -0.1074219 0.3808594
vt 0.04003906 -0.5908203
vt 0.04003906 -0.5214844
vt 0.1943359 -0.5234375
vt 0.1943359 -0.4697266
f 102/102/102 103/103/103 104/104/104
f 103/103/103 105/105/105 104/104/104
v 2.2229 0 1.194336
v 2.296875 0 1.372803
v 2.185547 0.574707 1.314453
v 2.416748 0.574707 1.410156
vn -0.9140625 -0.1386719 0.3789063
vn -0.3808594 -0.1074219 0.9179688
vn -0.7050781 -0.06445313 0.7070313
vn 0.3828125 -0.04101563 0.9238281
vt 0.1943359 -0.3613281
vt 0.1943359 -0.4150391
vt 0.04003906 -0.3818359
vt 0.04003906 -0.4521484
f 106/106/106 107/107/107 108/108/108
f 107/107/107 109/109/109 108/108/108
v 2.708496 1.596436 1.5
v 2.708496 0.4101563 1.5
v 2.708496 1.596436 -1.35791
v 2.708496 0.4101563 -1.108154
vn 0.9980469 0 0
vn 0.9980469 0 0
vn 0.9980469 0 0
vn 0.9980469 0 0
vt 0.2998047 -0.2958984
vt 0.2998047 -0.4960938
vt 0.9638672 -0.2958984
vt 0.9179688 -0.4960938
f 110/110/110 111/111/111 112/112/112
f 111/111/111 113/113/113 112/112/112
v 2 1.596436 1.5
v 2 1.596436 -0.4980469
v 2 1 1.5
v 2 1 -0.2495117
vn -1 0 0
vn -1 0 0
vn -1 0 0
vn -1 0 0
vt 0.2998047 -0.1298828
vt 0.8056641 -0.1474609
vt 0.2998047 -0.03808594
vt 0.7597656 -0.03808594
f 114/114/114 115/115/115 116/116/116
f 115/115/115 117/117/117 116/116/116
v 2.708496 1.596436 -1.35791
v 2.406982 1.596436 -0.9331055
v 2.708496 1.596436 1.5
v 2 1.596436 1.5
vn 0 0.9980469 0
vn 0.2792969 0.8652344 0.4179688
vn 0 0.9980469 0
vn 0 0.9980469 0
vt 0.9638672 -0.2958984
vt 0.8857422 -0.2226563
vt 0.2998047 -0.2958984
vt 0.2998047 -0.1298828
f 118/118/118 119/119/119 120/120/120
f 119/119/119 121/121/121 120/120/120
v -2.221436 0.574707 -0.6020508
v -2.452637 0.574707 -0.697998
v -2.341309 0 -0.6396484
v -2.415283 0 -0.8178711
vn -0.3828125 0.01953125 0.9238281
vn -0.9238281 -0.04101563 0.3828125
vn -0.7050781 -0.06445313 0.7070313
vn -0.9179688 -0.1074219 -0.3808594
vt 0.04003906 -0.5908203
vt 0.04003906 -0.5214844
vt 0.1943359 -0.5234375
vt 0.1943359 -0.4697266
f 122/122/122 123/123/123 124/124/124
f 123/123/123 125/125/125 124/124/124
v -2.162842 0 -0.7133789
v -2.236816 0 -0.8918457
v -2.125488 0.574707 -0.8334961
v -2.356934 0.574707 -0.9291992
vn 0.9140625 -0.1386719 -0.3789063
vn 0.3808594 -0.1074219 -0.9179688
vn 0.7050781 -0.06445313 -0.7070313
vn -0.3828125 -0.04101563 -0.9238281
vt 0.1943359 -0.3613281
vt 0.1943359 -0.4150391
vt 0.04003906 -0.3818359
vt 0.04003906 -0.4521484
f 126/126/126 127/127/127 128/128/128
f 127/127/127 129/129/129 128/128/128
v -2.708496 1.596436 1.5
v -2.708496 1.596436 -1.35791
v -2.708496 0.4101563 1.5
v -2.708496 0.4101563 -1.108154
vn -1 0 0
vn -1 0 0
vn -1 0 0
vn -1 0 0
vt 0.2998047 -0.2958984
vt 0.9638672 -0.2958984
vt 0.2998047 -0.4960938
vt 0.9179688 -0.4960938
f 130/130/130 131/131/131 132/132/132
f 131/131/131 133/133/133 132/132/132
v -2 0.4101563 1.5
v -2 1 1.5
v -2.708496 0.4101563 1.5
v -2.708496 1.596436 1.5
vn 0 0 0.9980469
vn 0 0 0.9980469
vn 0 0 0.9980469
vn 0 0 0.9980469
vt 0.03027344 -0.1298828
vt 0.1386719 -0.1298828
vt 0.03027344 -0.2958984
vt 0.2998047 -0.2958984
f 134/134/134 135/135/135 136/136/136
f 135/135/135 137/137/137 136/136/136
v -2 1.596436 1.5
v -2 1 1.5
v -2 1.596436 -0.4980469
v -2 1 -0.2495117
vn 0.9980469 0 0
vn 0.9980469 0 0
vn 0.9980469 0 0
vn 0.9980469 0 0
vt 0.2998047 -0.1298828
vt 0.2998047 -0.03808594
vt 0.8056641 -0.1474609
vt 0.7597656 -0.03808594
f 138/138/138 139/139/139 140/140/140
f 139/139/139 141/141/141 140/140/140
v 2.545898 2.390137 -1.439453
v 2.708496 1.596436 -1.35791
v 2.04126 2.389893 -1.439453
v 0 2.388672 -1.493164
vn 0 -0.1015625 -0.9941406
vn 0.005859375 -0.1386719 -0.9902344
vn 0.01953125 0.01171875 -1
vn 0 -0.01953125 -1
vt 0.9101563 -0.6357422
vt 0.9365234 -0.7714844
vt 0.828125 -0.6367188
vt 0.4941406 -0.6367188
f 142/142/142 143/143/143 144/144/144
f 143/143/143 145/145/145 144/144/144
v -2.708496 0.4101563 -1.108154
v -2.708496 1.596436 -1.35791
v 2.708496 0.4101563 -1.108154
v 2.708496 1.596436 -1.35791
vn 0 -0.2050781 -0.9785156
vn -0.005859375 -0.1523438 -0.9882813
vn 0 -0.2050781 -0.9785156
vn 0.005859375 -0.1386719 -0.9902344
vt 0.05078125 -0.9658203
vt 0.05078125 -0.7714844
vt 0.9365234 -0.9658203
vt 0.9365234 -0.7714844
f 146/146/146 147/147/147 148/148/148
f 147/147/147 149/149/149 148/148/148
v 2.296875 0 1.372803
v 2.475098 0 1.298828
v 2.416748 0.574707 1.410156
v 2.512695 0.574707 1.178955
vn -0.3808594 -0.1074219 0.9179688
vn 0.9179688 -0.1074219 0.3808594
vn 0.3828125 -0.04101563 0.9238281
vn 0.9238281 -0.04101563 -0.3828125
vt 0.1943359 -0.4150391
vt 0.1943359 -0.4697266
vt 0.04003906 -0.4521484
vt 0.04003906 -0.5214844
f 150/150/150 151/151/151 152/152/152
f 151/151/151 153/153/153 152/152/152
v -2.236816 0 -0.8918457
v -2.415283 0 -0.8178711
v -2.356934 0.574707 -0.9291992
v -2.452637 0.574707 -0.697998
vn 0.3808594 -0.1074219 -0.9179688
vn -0.9179688 -0.1074219 -0.3808594
vn -0.3828125 -0.04101563 -0.9238281
vn -0.9238281 -0.04101563 0.3828125
vt 0.1943359 -0.4150391
vt 0.1943359 -0.4697266
vt 0.04003906 -0.4521484
vt 0.04003906 -0.5214844
f 154/154/154 155/155/155 156/156/156
f 155/155/155 157/157/157 156/156/156
v 2 1.596436 1.5
v 2.406982 1.596436 -0.9331055
v 2 1.596436 -0.4980469
v -2.708496 1.596436 1.5
v -2 1 1.5
v -2 1.596436 1.5
v -1.330566 2.782959 -1.412354
v 0 3.050293 -1.415527
v -2.04126 2.38916 -1.439453
v 0 2.388672 -1.493164
v 2.708496 1.596436 -1.35791
v -2.708496 1.596436 -1.35791
vn 0 0.9980469 0
vn 0.2792969 0.8652344 0.4179688
vn 0.234375 0.6933594 0.6816406
vn 0 0 0.9980469
vn 0 0 0.9980469
vn 0 0 0.9980469
vn -0.02539063 0.1152344 -0.9921875
vn 0 0.1152344 -0.9941406
vn -0.01953125 0.01171875 -1
vn 0 -0.01953125 -1
vn 0.005859375 -0.1386719 -0.9902344
vn -0.005859375 -0.1523438 -0.9882813
vt 0.2998047 -0.1298828
vt 0.8857422 -0.2226563
vt 0.8056641 -0.1474609
vt 0.2998047 -0.2958984
vt 0.1386719 -0.1298828
vt 0.2998047 -0.1298828
vt 0.2763672 -0.5742188
vt 0.4941406 -0.53125
vt 0.1601563 -0.6367188
vt 0.4941406 -0.6367188
vt 0.9365234 -0.7714844
vt 0.05078125 -0.7714844
f 158/158/158 159/159/159 160/160/160
f 161/161/161 162/162/162 163/163/163
f 164/164/164 165/165/165 166/166/166
f 167/167/167 168/168/168 169/169/169
