# 3ds Max Wavefront OBJ Exporter v0.97b - (c)2007 guruware
# File Created: 11.05.2014 22:31:38

mtllib Soccer Ball.mtl

#
# object n0b1
#

v  9.5664 -46.1934 -16.5703
v  30.6172 -35.3535 -17.6758
v  16.5703 -46.1934 -9.5664
v  17.6758 -35.3535 -30.6172
v  0.0000 -46.1934 -19.1328
v  0.0000 -35.3535 -35.3535
v  -9.5664 -46.1934 -16.5703
v  -17.6758 -35.3535 -30.6172
v  -16.5703 -46.1934 -9.5664
v  -30.6172 -35.3535 -17.6758
v  -19.1328 -46.1934 -0.0000
v  -35.3535 -35.3535 -0.0000
v  -16.5703 -46.1934 9.5664
v  -30.6172 -35.3535 17.6758
v  -9.5664 -46.1934 16.5703
v  -17.6758 -35.3535 30.6172
v  0.0000 -46.1934 19.1328
v  0.0000 -35.3535 35.3535
v  9.5664 -46.1934 16.5703
v  17.6758 -35.3535 30.6172
v  16.5703 -46.1934 9.5664
v  30.6172 -35.3535 17.6758
v  19.1328 -46.1934 -0.0000
v  35.3535 -35.3535 -0.0000
v  40.0039 -19.1328 -23.0957
v  23.0957 -19.1328 -40.0039
v  0.0000 -19.1328 -46.1934
v  -23.0957 -19.1328 -40.0039
v  -40.0039 -19.1328 -23.0957
v  -46.1934 -19.1328 -0.0000
v  -40.0039 -19.1328 23.0957
v  -23.0957 -19.1328 40.0039
v  0.0000 -19.1328 46.1934
v  23.0957 -19.1328 40.0039
v  40.0039 -19.1328 23.0957
v  46.1934 -19.1328 -0.0000
v  43.3008 0.0000 -25.0000
v  24.9980 0.0000 -43.3008
v  0.0000 0.0000 -49.9980
v  -24.9980 0.0000 -43.3008
v  -43.3008 0.0000 -24.9980
v  -49.9980 0.0000 -0.0000
v  -43.3008 0.0000 24.9980
v  -24.9980 0.0000 43.3008
v  0.0000 0.0000 49.9980
v  24.9980 0.0000 43.3008
v  43.3008 0.0000 24.9980
v  50.0000 0.0000 -0.0000
v  40.0039 19.1328 -23.0957
v  23.0957 19.1328 -40.0039
v  0.0000 19.1328 -46.1934
v  -23.0957 19.1328 -40.0039
v  -40.0039 19.1328 -23.0957
v  -46.1934 19.1328 -0.0000
v  -40.0039 19.1328 23.0957
v  -23.0957 19.1328 40.0039
v  0.0000 19.1328 46.1934
v  23.0957 19.1328 40.0039
v  40.0039 19.1328 23.0957
v  46.1934 19.1328 -0.0000
v  30.6172 35.3535 -17.6758
v  17.6758 35.3535 -30.6172
v  0.0000 35.3535 -35.3535
v  -17.6758 35.3535 -30.6172
v  -30.6172 35.3535 -17.6758
v  -35.3535 35.3535 -0.0000
v  -30.6172 35.3535 17.6758
v  -17.6758 35.3535 30.6172
v  0.0000 35.3535 35.3535
v  17.6758 35.3535 30.6172
v  30.6172 35.3535 17.6758
v  35.3535 35.3535 -0.0000
v  16.5703 46.1934 -9.5664
v  9.5664 46.1934 -16.5703
v  0.0000 46.1934 -19.1328
v  -9.5664 46.1934 -16.5703
v  -16.5703 46.1934 -9.5664
v  -19.1328 46.1934 -0.0000
v  -16.5703 46.1934 9.5664
v  -9.5664 46.1934 16.5703
v  0.0000 46.1934 19.1328
v  9.5664 46.1934 16.5703
v  16.5703 46.1934 9.5664
v  19.1328 46.1934 -0.0000
# 84 vertices

vn 0.2778 -0.8314 -0.4812
vn 0.6258 -0.6913 -0.3613
vn 0.4812 -0.8314 -0.2778
vn 0.3613 -0.6913 -0.6258
vn 0.0000 -0.8314 -0.5556
vn 0.0000 -0.6913 -0.7226
vn -0.2778 -0.8314 -0.4812
vn -0.3613 -0.6913 -0.6258
vn -0.4812 -0.8314 -0.2778
vn -0.6258 -0.6913 -0.3613
vn -0.5556 -0.8314 -0.0000
vn -0.7226 -0.6913 -0.0000
vn -0.4812 -0.8314 0.2778
vn -0.6258 -0.6913 0.3613
vn -0.2778 -0.8314 0.4812
vn -0.3613 -0.6913 0.6258
vn -0.0000 -0.8314 0.5556
vn -0.0000 -0.6913 0.7226
vn 0.2778 -0.8314 0.4812
vn 0.3613 -0.6913 0.6258
vn 0.4812 -0.8314 0.2778
vn 0.6258 -0.6913 0.3613
vn 0.5556 -0.8314 0.0000
vn 0.7226 -0.6913 0.0000
vn 0.8039 -0.3718 -0.4642
vn 0.4642 -0.3718 -0.8039
vn -0.0000 -0.3718 -0.9283
vn -0.4642 -0.3718 -0.8039
vn -0.8039 -0.3718 -0.4642
vn -0.9283 -0.3718 0.0000
vn -0.8039 -0.3718 0.4642
vn -0.4642 -0.3718 0.8039
vn 0.0000 -0.3718 0.9283
vn 0.4642 -0.3718 0.8039
vn 0.8039 -0.3718 0.4642
vn 0.9283 -0.3718 0.0000
vn 0.8660 0.0000 -0.5000
vn 0.5000 0.0000 -0.8660
vn 0.0000 -0.0000 -1.0000
vn -0.5000 -0.0000 -0.8660
vn -0.8660 0.0000 -0.5000
vn -1.0000 -0.0000 -0.0000
vn -0.8660 -0.0000 0.5000
vn -0.5000 0.0000 0.8660
vn 0.0000 -0.0000 1.0000
vn 0.5000 -0.0000 0.8660
vn 0.8660 0.0000 0.5000
vn 1.0000 -0.0000 0.0000
vn 0.8039 0.3718 -0.4642
vn 0.4642 0.3718 -0.8039
vn 0.0000 0.3718 -0.9283
vn -0.4642 0.3718 -0.8039
vn -0.8039 0.3718 -0.4642
vn -0.9283 0.3718 -0.0000
vn -0.8039 0.3718 0.4642
vn -0.4642 0.3718 0.8039
vn -0.0000 0.3718 0.9283
vn 0.4642 0.3718 0.8039
vn 0.8039 0.3718 0.4642
vn 0.9283 0.3718 0.0000
vn 0.6258 0.6913 -0.3613
vn 0.3613 0.6913 -0.6258
vn -0.0000 0.6913 -0.7226
vn -0.3613 0.6913 -0.6258
vn -0.6258 0.6913 -0.3613
vn -0.7226 0.6913 0.0000
vn -0.6258 0.6913 0.3613
vn -0.3613 0.6913 0.6258
vn 0.0000 0.6913 0.7226
vn 0.3613 0.6913 0.6258
vn 0.6258 0.6913 0.3613
vn 0.7226 0.6913 -0.0000
vn 0.4812 0.8314 -0.2778
vn 0.2778 0.8314 -0.4812
vn -0.0000 0.8314 -0.5556
vn -0.2778 0.8314 -0.4812
vn -0.4812 0.8314 -0.2778
vn -0.5556 0.8314 0.0000
vn -0.4812 0.8314 0.2778
vn -0.2778 0.8314 0.4812
vn 0.0000 0.8314 0.5556
vn 0.2778 0.8314 0.4812
vn 0.4812 0.8314 0.2778
vn 0.5556 0.8314 -0.0000
# 84 vertex normals

vt 1.0000 0.4858 0.0000
vt 0.5000 0.5492 0.0000
vt 0.5000 0.4858 0.0000
vt 1.0000 0.5492 0.0000
vt 1.5000 0.4858 0.0000
vt 1.5000 0.5492 0.0000
vt 2.0000 0.4858 0.0000
vt 2.0000 0.5492 0.0000
vt 2.5000 0.4858 0.0000
vt 2.5000 0.5492 0.0000
vt 3.0000 0.4858 0.0000
vt 3.0000 0.5492 0.0000
vt 3.5000 0.4858 0.0000
vt 3.5000 0.5492 0.0000
vt 4.0000 0.4858 0.0000
vt 4.0000 0.5492 0.0000
vt 4.5000 0.4858 0.0000
vt 4.5000 0.5492 0.0000
vt 5.0000 0.4858 0.0000
vt 5.0000 0.5492 0.0000
vt 5.5000 0.4858 0.0000
vt 5.5000 0.5492 0.0000
vt 6.0000 0.4858 0.0000
vt 6.0000 0.5492 0.0000
vt 6.5000 0.4858 0.0000
vt 6.5000 0.5492 0.0000
vt 0.5000 0.6439 0.0000
vt 1.0000 0.6439 0.0000
vt 1.5000 0.6439 0.0000
vt 2.0000 0.6439 0.0000
vt 2.5000 0.6439 0.0000
vt 3.0000 0.6439 0.0000
vt 3.5000 0.6439 0.0000
vt 4.0000 0.6439 0.0000
vt 4.5000 0.6439 0.0000
vt 5.0000 0.6439 0.0000
vt 5.5000 0.6439 0.0000
vt 6.0000 0.6439 0.0000
vt 6.5000 0.6439 0.0000
vt 0.5000 0.7557 0.0000
vt 1.0000 0.7557 0.0000
vt 1.5000 0.7557 0.0000
vt 2.0000 0.7557 0.0000
vt 2.5000 0.7557 0.0000
vt 3.0000 0.7557 0.0000
vt 3.5000 0.7557 0.0000
vt 4.0000 0.7557 0.0000
vt 4.5000 0.7557 0.0000
vt 5.0000 0.7557 0.0000
vt 5.5000 0.7557 0.0000
vt 6.0000 0.7557 0.0000
vt 6.5000 0.7557 0.0000
vt 0.5000 0.8675 0.0000
vt 1.0000 0.8675 0.0000
vt 1.5000 0.8675 0.0000
vt 2.0000 0.8675 0.0000
vt 2.5000 0.8675 0.0000
vt 3.0000 0.8675 0.0000
vt 3.5000 0.8675 0.0000
vt 4.0000 0.8675 0.0000
vt 4.5000 0.8675 0.0000
vt 5.0000 0.8675 0.0000
vt 5.5000 0.8675 0.0000
vt 6.0000 0.8675 0.0000
vt 6.5000 0.8675 0.0000
vt 0.5000 0.9622 0.0000
vt 1.0000 0.9622 0.0000
vt 1.5000 0.9622 0.0000
vt 2.0000 0.9622 0.0000
vt 2.5000 0.9622 0.0000
vt 3.0000 0.9622 0.0000
vt 3.5000 0.9622 0.0000
vt 4.0000 0.9622 0.0000
vt 4.5000 0.9622 0.0000
vt 5.0000 0.9622 0.0000
vt 5.5000 0.9622 0.0000
vt 6.0000 0.9622 0.0000
vt 6.5000 0.9622 0.0000
vt 0.5000 1.0255 0.0000
vt 1.0000 1.0255 0.0000
vt 1.5000 1.0255 0.0000
vt 2.0000 1.0255 0.0000
vt 2.5000 1.0255 0.0000
vt 3.0000 1.0255 0.0000
vt 3.5000 1.0255 0.0000
vt 4.0000 1.0255 0.0000
vt 4.5000 1.0255 0.0000
vt 5.0000 1.0255 0.0000
vt 5.5000 1.0255 0.0000
vt 6.0000 1.0255 0.0000
vt 6.5000 1.0255 0.0000
# 91 texture coords

g n0b1
usemtl 01___Default
s 1
f 1/1/1 2/2/2 3/3/3 
f 2/2/2 1/1/1 4/4/4 
f 5/5/5 4/4/4 1/1/1 
f 4/4/4 5/5/5 6/6/6 
f 7/7/7 6/6/6 5/5/5 
f 6/6/6 7/7/7 8/8/8 
f 9/9/9 8/8/8 7/7/7 
f 8/8/8 9/9/9 10/10/10 
f 11/11/11 10/10/10 9/9/9 
f 10/10/10 11/11/11 12/12/12 
f 13/13/13 12/12/12 11/11/11 
f 12/12/12 13/13/13 14/14/14 
f 15/15/15 14/14/14 13/13/13 
f 14/14/14 15/15/15 16/16/16 
f 17/17/17 16/16/16 15/15/15 
f 16/16/16 17/17/17 18/18/18 
f 19/19/19 18/18/18 17/17/17 
f 18/18/18 19/19/19 20/20/20 
f 21/21/21 20/20/20 19/19/19 
f 20/20/20 21/21/21 22/22/22 
f 23/23/23 22/22/22 21/21/21 
f 22/22/22 23/23/23 24/24/24 
f 3/25/3 24/24/24 23/23/23 
f 24/24/24 3/25/3 2/26/2 
f 4/4/4 25/27/25 2/2/2 
f 25/27/25 4/4/4 26/28/26 
f 6/6/6 26/28/26 4/4/4 
f 26/28/26 6/6/6 27/29/27 
f 8/8/8 27/29/27 6/6/6 
f 27/29/27 8/8/8 28/30/28 
f 10/10/10 28/30/28 8/8/8 
f 28/30/28 10/10/10 29/31/29 
f 12/12/12 29/31/29 10/10/10 
f 29/31/29 12/12/12 30/32/30 
f 14/14/14 30/32/30 12/12/12 
f 30/32/30 14/14/14 31/33/31 
f 16/16/16 31/33/31 14/14/14 
f 31/33/31 16/16/16 32/34/32 
f 18/18/18 32/34/32 16/16/16 
f 32/34/32 18/18/18 33/35/33 
f 20/20/20 33/35/33 18/18/18 
f 33/35/33 20/20/20 34/36/34 
f 22/22/22 34/36/34 20/20/20 
f 34/36/34 22/22/22 35/37/35 
f 24/24/24 35/37/35 22/22/22 
f 35/37/35 24/24/24 36/38/36 
f 2/26/2 36/38/36 24/24/24 
f 36/38/36 2/26/2 25/39/25 
f 26/28/26 37/40/37 25/27/25 
f 37/40/37 26/28/26 38/41/38 
f 27/29/27 38/41/38 26/28/26 
f 38/41/38 27/29/27 39/42/39 
f 28/30/28 39/42/39 27/29/27 
f 39/42/39 28/30/28 40/43/40 
f 29/31/29 40/43/40 28/30/28 
f 40/43/40 29/31/29 41/44/41 
f 30/32/30 41/44/41 29/31/29 
f 41/44/41 30/32/30 42/45/42 
f 31/33/31 42/45/42 30/32/30 
f 42/45/42 31/33/31 43/46/43 
f 32/34/32 43/46/43 31/33/31 
f 43/46/43 32/34/32 44/47/44 
f 33/35/33 44/47/44 32/34/32 
f 44/47/44 33/35/33 45/48/45 
f 34/36/34 45/48/45 33/35/33 
f 45/48/45 34/36/34 46/49/46 
f 35/37/35 46/49/46 34/36/34 
f 46/49/46 35/37/35 47/50/47 
f 36/38/36 47/50/47 35/37/35 
f 47/50/47 36/38/36 48/51/48 
f 25/39/25 48/51/48 36/38/36 
f 48/51/48 25/39/25 37/52/37 
f 38/41/38 49/53/49 37/40/37 
f 49/53/49 38/41/38 50/54/50 
f 39/42/39 50/54/50 38/41/38 
f 50/54/50 39/42/39 51/55/51 
f 40/43/40 51/55/51 39/42/39 
f 51/55/51 40/43/40 52/56/52 
f 41/44/41 52/56/52 40/43/40 
f 52/56/52 41/44/41 53/57/53 
f 42/45/42 53/57/53 41/44/41 
f 53/57/53 42/45/42 54/58/54 
f 43/46/43 54/58/54 42/45/42 
f 54/58/54 43/46/43 55/59/55 
f 44/47/44 55/59/55 43/46/43 
f 55/59/55 44/47/44 56/60/56 
f 45/48/45 56/60/56 44/47/44 
f 56/60/56 45/48/45 57/61/57 
f 46/49/46 57/61/57 45/48/45 
f 57/61/57 46/49/46 58/62/58 
f 47/50/47 58/62/58 46/49/46 
f 58/62/58 47/50/47 59/63/59 
f 48/51/48 59/63/59 47/50/47 
f 59/63/59 48/51/48 60/64/60 
f 37/52/37 60/64/60 48/51/48 
f 60/64/60 37/52/37 49/65/49 
f 50/54/50 61/66/61 49/53/49 
f 61/66/61 50/54/50 62/67/62 
f 51/55/51 62/67/62 50/54/50 
f 62/67/62 51/55/51 63/68/63 
f 52/56/52 63/68/63 51/55/51 
f 63/68/63 52/56/52 64/69/64 
f 53/57/53 64/69/64 52/56/52 
f 64/69/64 53/57/53 65/70/65 
f 54/58/54 65/70/65 53/57/53 
f 65/70/65 54/58/54 66/71/66 
f 55/59/55 66/71/66 54/58/54 
f 66/71/66 55/59/55 67/72/67 
f 56/60/56 67/72/67 55/59/55 
f 67/72/67 56/60/56 68/73/68 
f 57/61/57 68/73/68 56/60/56 
f 68/73/68 57/61/57 69/74/69 
f 58/62/58 69/74/69 57/61/57 
f 69/74/69 58/62/58 70/75/70 
f 59/63/59 70/75/70 58/62/58 
f 70/75/70 59/63/59 71/76/71 
f 60/64/60 71/76/71 59/63/59 
f 71/76/71 60/64/60 72/77/72 
f 49/65/49 72/77/72 60/64/60 
f 72/77/72 49/65/49 61/78/61 
f 62/67/62 73/79/73 61/66/61 
f 73/79/73 62/67/62 74/80/74 
f 63/68/63 74/80/74 62/67/62 
f 74/80/74 63/68/63 75/81/75 
f 64/69/64 75/81/75 63/68/63 
f 75/81/75 64/69/64 76/82/76 
f 65/70/65 76/82/76 64/69/64 
f 76/82/76 65/70/65 77/83/77 
f 66/71/66 77/83/77 65/70/65 
f 77/83/77 66/71/66 78/84/78 
f 67/72/67 78/84/78 66/71/66 
f 78/84/78 67/72/67 79/85/79 
f 68/73/68 79/85/79 67/72/67 
f 79/85/79 68/73/68 80/86/80 
f 69/74/69 80/86/80 68/73/68 
f 80/86/80 69/74/69 81/87/81 
f 70/75/70 81/87/81 69/74/69 
f 81/87/81 70/75/70 82/88/82 
f 71/76/71 82/88/82 70/75/70 
f 82/88/82 71/76/71 83/89/83 
f 72/77/72 83/89/83 71/76/71 
f 83/89/83 72/77/72 84/90/84 
f 61/78/61 84/90/84 72/77/72 
f 84/90/84 61/78/61 73/91/73 
# 0 polygons - 144 triangles

#
# object n1b0
#

v  0.0000 50.0000 -0.0000
v  16.5703 46.1934 9.5664
v  19.1328 46.1934 -0.0000
v  9.5664 46.1934 16.5703
v  0.0000 46.1934 19.1328
v  -9.5664 46.1934 16.5703
v  -16.5703 46.1934 9.5664
v  -19.1328 46.1934 -0.0000
v  -16.5703 46.1934 -9.5664
v  -9.5664 46.1934 -16.5703
v  0.0000 46.1934 -19.1328
v  9.5664 46.1934 -16.5703
v  16.5703 46.1934 -9.5664
v  0.0000 -50.0000 -0.0000
v  19.1328 -46.1934 -0.0000
v  16.5703 -46.1934 9.5664
v  16.5703 -46.1934 -9.5664
v  9.5664 -46.1934 -16.5703
v  9.5664 -46.1934 16.5703
v  0.0000 -46.1934 19.1328
v  -9.5664 -46.1934 16.5703
v  -16.5703 -46.1934 9.5664
v  -19.1328 -46.1934 -0.0000
v  -16.5703 -46.1934 -9.5664
v  -9.5664 -46.1934 -16.5703
v  0.0000 -46.1934 -19.1328
# 26 vertices

vn 0.0000 1.0000 0.0000
vn 0.1690 0.9808 0.0976
vn 0.1951 0.9808 0.0000
vn 0.0976 0.9808 0.1690
vn -0.0000 0.9808 0.1951
vn -0.0976 0.9808 0.1690
vn -0.1690 0.9808 0.0976
vn -0.1951 0.9808 -0.0000
vn -0.1690 0.9808 -0.0976
vn -0.0976 0.9808 -0.1690
vn 0.0000 0.9808 -0.1951
vn 0.0976 0.9808 -0.1690
vn 0.1690 0.9808 -0.0976
vn 0.0000 -1.0000 -0.0000
vn 0.1951 -0.9808 -0.0000
vn 0.1690 -0.9808 0.0976
vn 0.1690 -0.9808 -0.0976
vn 0.0976 -0.9808 -0.1690
vn 0.0976 -0.9808 0.1690
vn 0.0000 -0.9808 0.1951
vn -0.0976 -0.9808 0.1690
vn -0.1690 -0.9808 0.0976
vn -0.1951 -0.9808 -0.0000
vn -0.1690 -0.9808 -0.0976
vn -0.0976 -0.9808 -0.1690
vn -0.0000 -0.9808 -0.1951
# 26 vertex normals

vt 0.5000 0.2506 0.0000
vt 0.7006 0.4054 0.0000
vt 0.8326 0.3358 0.0000
vt 0.5149 0.4336 0.0000
vt 0.3251 0.4127 0.0000
vt 0.1823 0.3483 0.0000
vt 0.1245 0.2578 0.0000
vt 0.1674 0.1653 0.0000
vt 0.2994 0.0957 0.0000
vt 0.4851 0.0676 0.0000
vt 0.6749 0.0885 0.0000
vt 0.8177 0.1528 0.0000
vt 0.8755 0.2433 0.0000
# 13 texture coords

g n1b0
usemtl 01___Default
s 1
f 85/92/85 86/93/86 87/94/87 
f 86/93/86 85/92/85 88/95/88 
f 89/96/89 88/95/88 85/92/85 
f 85/92/85 90/97/90 89/96/89 
f 90/97/90 85/92/85 91/98/91 
f 92/99/92 91/98/91 85/92/85 
f 85/92/85 93/100/93 92/99/92 
f 93/100/93 85/92/85 94/101/94 
f 95/102/95 94/101/94 85/92/85 
f 85/92/85 96/103/96 95/102/95 
f 96/103/96 85/92/85 97/104/97 
f 87/94/87 97/104/97 85/92/85 
f 98/92/98 99/94/99 100/93/100 
f 99/94/99 98/92/98 101/104/101 
f 102/103/102 101/104/101 98/92/98 
f 103/95/103 98/92/98 100/93/100 
f 98/92/98 103/95/103 104/96/104 
f 105/97/105 98/92/98 104/96/104 
f 98/92/98 105/97/105 106/98/106 
f 107/99/107 98/92/98 106/98/106 
f 98/92/98 107/99/107 108/100/108 
f 109/101/109 98/92/98 108/100/108 
f 98/92/98 109/101/109 110/102/110 
f 110/102/110 102/103/102 98/92/98 
# 0 polygons - 24 triangles

