# Blender v2.81 (sub 16) OBJ File: ''
# www.blender.org
mtllib tablon.mtl
o mesh0404
v -0.517128 -2.086372 -0.339911
v -0.520624 -2.086372 -0.055295
v -0.604312 -1.218163 -0.056367
v 0.233696 2.063196 -0.330751
v 0.739424 2.198012 -0.324615
v 0.751376 0.842820 -0.324463
v 0.736008 2.198012 -0.040087
v 0.747976 0.842820 -0.039927
v 0.230288 2.063196 -0.046215
v 0.790272 -2.316492 -0.323968
v 0.088639 -2.312708 -0.047952
v 0.092136 -2.312708 -0.332560
v -0.684424 2.045468 -0.341943
v -0.600808 -1.218163 -0.340975
v -0.604312 0.539180 -0.056367
v -0.600808 0.539180 -0.340975
v -0.646072 1.292325 -0.056887
v -0.642664 1.292325 -0.341415
v -0.687928 2.045468 -0.057335
v 0.665656 0.436028 -0.040863
v 0.669160 0.436029 -0.325471
v 0.713567 -1.228620 -0.040335
v 0.717072 -1.228620 -0.324943
v 0.785400 -1.657500 -0.039495
v 0.788808 -1.657500 -0.324023
v 0.786872 -2.316492 -0.039440
vt 1.504873 0.967110
vt 1.537142 0.967110
vt 1.537142 0.758203
vt 1.644902 1.528537
vt 1.714210 1.528537
vt 1.715582 1.675281
vt 1.744432 0.028201
vt 1.744094 0.026831
vt 1.744094 0.355659
vt 1.648638 0.026831
vt 1.743503 0.997164
vt 1.628378 0.991682
vt 1.628378 0.997164
vt 1.536593 0.972592
vt 1.534293 0.014790
vt 1.648638 0.019684
vt 1.744094 0.026831
vt 1.504873 0.758203
vt 1.537142 0.436325
vt 1.504873 0.436325
vt 1.537142 0.210286
vt 1.504873 0.210286
vt 1.537142 0.026831
vt 1.504873 0.028201
vt 1.744432 0.355659
vt 1.744094 0.469707
vt 1.744432 0.469707
vt 1.744094 0.760454
vt 1.744432 0.760454
vt 1.744094 0.853454
vt 1.744432 0.853454
vt 1.744094 0.991682
vt 1.748970 0.967110
vt 1.720077 1.976601
vt 1.628546 1.976210
vt 1.719908 1.913753
vt 1.558205 1.948604
vt 1.716046 1.872833
vt 1.548539 1.871854
vt 1.710517 1.714048
vt 1.548539 1.704258
vt 1.543094 1.600294
vt 1.538894 1.528537
vn -0.9005 -0.4348 -0.0109
vn -0.6513 -0.7588 -0.0081
vn -0.9979 -0.0640 -0.0123
vn 0.0122 -0.0000 -0.9999
vn 0.0121 -0.0000 -0.9999
vn 0.9999 0.0088 0.0120
vn 0.9981 -0.0605 0.0119
vn -0.0121 0.0000 0.9999
vn -0.0122 0.0001 0.9999
vn -0.0054 -1.0000 -0.0001
vn -0.1213 -0.9926 -0.0015
vn -0.2372 -0.9715 -0.0029
vn -0.0193 0.9998 -0.0002
vn -0.0994 0.9951 -0.0012
vn -0.1793 0.9838 -0.0022
vn -0.2575 0.9663 -0.0031
vn -0.9994 -0.0320 -0.0123
vn -0.9998 -0.0185 -0.0123
vn -0.9992 -0.0370 -0.0123
vn -0.9984 -0.0555 -0.0120
vn -0.9984 -0.0554 -0.0122
vn -0.9984 -0.0554 -0.0123
vn 0.9915 -0.1298 0.0120
vn 0.9923 -0.1233 0.0121
vn 0.9988 -0.0471 0.0123
vn 0.9972 0.0744 0.0123
vn 0.9927 0.1199 0.0122
vn 0.9937 0.1111 0.0120
vn 0.9983 0.0566 0.0119
vn 0.9999 0.0022 0.0120
vn 0.9999 0.0022 0.0119
vn 0.0123 -0.0001 -0.9999
vn 0.0122 0.0001 -0.9999
vn 0.0122 -0.0001 -0.9999
vn -0.0121 -0.0001 0.9999
vn -0.0122 0.0000 0.9999
usemtl mesh0404mat
s 1
f 1/1/1 2/2/2 3/3/3
f 4/4/4 5/5/5 6/6/4
f 5/7/6 7/8/6 8/9/7
f 7/8/8 9/10/8 8/9/9
f 10/11/10 11/12/11 12/13/12
f 11/12/11 2/2/2 12/13/12
f 12/13/12 2/2/2 1/14/1
f 13/15/13 9/10/14 4/16/15
f 9/10/14 7/8/16 4/16/15
f 4/16/15 7/8/16 5/17/16
f 1/1/1 3/3/3 14/18/17
f 3/3/3 15/19/18 14/18/17
f 14/18/17 15/19/18 16/20/19
f 15/19/18 17/21/20 16/20/19
f 16/20/19 17/21/20 18/22/20
f 17/21/20 19/23/21 18/22/20
f 18/22/20 19/23/21 13/24/22
f 5/7/6 8/9/7 6/25/23
f 8/9/7 20/26/24 6/25/23
f 6/25/23 20/26/24 21/27/25
f 20/26/24 22/28/26 21/27/25
f 21/27/25 22/28/26 23/29/27
f 22/28/26 24/30/28 23/29/27
f 23/29/27 24/30/28 25/31/29
f 24/30/28 26/32/30 25/31/29
f 25/31/29 26/32/30 10/33/31
f 10/34/32 12/35/33 25/36/34
f 12/35/33 1/37/4 25/36/34
f 25/36/34 1/37/4 23/38/4
f 1/37/4 14/39/4 23/38/4
f 23/38/4 14/39/4 21/40/4
f 14/39/4 16/41/4 21/40/4
f 21/40/4 16/41/4 6/6/4
f 16/41/4 18/42/4 6/6/4
f 6/6/4 18/42/4 4/4/4
f 18/42/4 13/43/4 4/4/4
f 13/15/13 19/23/13 9/10/14
f 19/23/35 17/21/8 9/10/8
f 9/10/8 17/21/8 8/9/9
f 17/21/8 15/19/36 8/9/9
f 8/9/9 15/19/36 20/26/9
f 15/19/36 3/3/36 20/26/9
f 20/26/9 3/3/36 22/28/8
f 3/3/36 2/2/8 22/28/8
f 22/28/8 2/2/8 24/30/8
f 2/2/8 11/12/8 24/30/8
f 24/30/8 11/12/8 26/32/9
f 11/12/11 10/11/10 26/32/10
