# Created by MKDS Course Modifier
mtllib Rattan Sofa.mtl
g polygon0
usemtl Material1205
v -0.8000488 0.6000977 1
v 0.8000488 0.6000977 1
v -0.8000488 1 0.8999023
v 0.8000488 1 0.8999023
v -0.8000488 1 -0.5
v 0.8000488 1 -0.5
v -0.8000488 1.800049 -0.5
v 0.8000488 1.800049 -0.5
v 0.8000488 1.899902 -0.8000488
vn 0 0.2421875 0.9707031
vn 0 0.2421875 0.9707031
vn 0 0.6074219 0.7949219
vn 0 0.9179688 0.3964844
vn 0 0.8945313 0.4472656
vn 0 0.4472656 0.8945313
vn 0 0.5839844 0.8105469
vn 0 0.5839844 0.8105469
vn 0 0.9492188 0.3164063
vt 0.01269531 -0.7890625
vt 0.4111328 -0.7890625
vt 0.01269531 -0.6679688
vt 0.4111328 -0.6679688
vt 0.01269531 -0.2050781
vt 0.4111328 -0.2050781
vt 0.01269531 -0.5898438
vt 0.4111328 -0.5898438
vt 0.4111328 -0.7890625
f 1/1/1 2/2/2 3/3/3
f 2/2/2 4/4/4 3/3/3
f 3/3/3 4/4/4 5/5/5
f 4/4/4 6/6/6 5/5/5
f 5/5/5 6/6/6 7/7/7
f 6/6/6 8/8/8 7/7/7
f 7/7/7 8/8/8 9/9/9
v -0.8000488 1.100098 1
v -1 1.100098 1
v -0.8000488 0.6000977 1
v -1 0 1
v -0.8000488 0.1999512 1
v -0.8000488 0 1
vn 0 0 0.9980469
vn 0 0 0.9980469
vn 0 0 0.9980469
vn 0 0 0.9980469
vn 0 0 0.9980469
vn 0 0 0.9980469
vt 0.4375 -0.6298828
vt 0.5078125 -0.6298828
vt 0.4375 -0.7841797
vt 0.5078125 -0.9726563
vt 0.4375 -0.9003906
vt 0.4375 -0.9726563
f 10/10/10 11/11/11 12/12/12
f 11/11/11 13/13/13 12/12/12
f 12/12/12 13/13/13 14/14/14
f 13/13/13 15/15/15 14/14/14
v -1 0 -0.8000488
v -1 0.1999512 -0.8000488
v -1 0 -1
v -1 0.8000488 -0.8000488
v -1 1.800049 -1
v -1 1.899902 -0.8000488
vn -1 0 0
vn -1 0 0
vn -1 0 0
vn -1 0 0
vn -1 0 0
vn -1 0 0
vt 0.9306641 -0.9726563
vt 0.9306641 -0.9111328
vt 0.9902344 -0.9726563
vt 0.9306641 -0.7197266
vt 0.9902344 -0.4257813
vt 0.9306641 -0.3828125
f 16/16/16 17/17/17 18/18/18
f 17/17/17 19/19/19 18/18/18
f 18/18/18 19/19/19 20/20/20
f 19/19/19 21/21/21 20/20/20
v 1 1.300049 0.8000488
v 1 0.8000488 0.8000488
v 1 1.899902 -0.8000488
v 1 0.8000488 -0.8000488
v 1 1.800049 -1
v 1 0 -1
vn 0.9980469 0 0
vn 0.9980469 0 0
vn 0.9980469 0 0
vn 0.9980469 0 0
vn 0.9980469 0 0
vn 0.9980469 0 0
vt 0.5576172 -0.5292969
vt 0.5576172 -0.7197266
vt 0.9306641 -0.3828125
vt 0.9306641 -0.7197266
vt 0.9902344 -0.4257813
vt 0.9902344 -0.9726563
f 22/22/22 23/23/23 24/24/24
f 23/23/23 25/25/25 24/24/24
f 24/24/24 25/25/25 26/26/26
f 25/25/25 27/27/27 26/26/26
v 0.8000488 1.800049 -0.5
v 1 1.899902 -0.8000488
v 0.8000488 1.899902 -0.8000488
v 1 1.800049 -1
v 0.8000488 1.800049 -1
vn 0.01953125 0.9394531 0.3417969
vn 0.02148438 0.9960938 0.078125
vn 0 0.9511719 -0.3085938
vn 0 0.8945313 -0.4472656
vn 0 0.8945313 -0.4472656
vt 0.875 0
vt 1 -0.00390625
vt 0.875 -0.00390625
vt 1 -0.04589844
vt 0.875 -0.04589844
f 28/28/28 29/29/29 30/30/30
f 29/29/29 31/31/31 30/30/30
f 30/30/30 31/31/31 32/32/32
v -1 0 1
v -1 1.100098 1
v -1 0.8000488 0.8000488
v -1 1.300049 0.8000488
v -1 1.899902 -0.8000488
vn -1 0 0
vn -1 0 0
vn -1 0 0
vn -1 0 0
vn -1 0 0
vt 0.5009766 -0.9726563
vt 0.5009766 -0.6035156
vt 0.5576172 -0.7197266
vt 0.5576172 -0.5292969
vt 0.9306641 -0.3828125
f 33/33/33 34/34/34 35/35/35
f 34/34/34 36/36/36 35/35/35
f 35/35/35 36/36/36 37/37/37
v -1 1.800049 -1
v -0.8000488 1.899902 -0.8000488
v -0.8000488 1.800049 -1
v 0.8000488 1.899902 -0.8000488
v 0.8000488 1.800049 -1
vn 0 0.8945313 -0.4472656
vn 0 0.9628906 -0.2714844
vn 0 0.8945313 -0.4472656
vn 0 0.9511719 -0.3085938
vn 0 0.8945313 -0.4472656
vt 0 -0.04589844
vt 0.125 -0.00390625
vt 0.125 -0.04589844
vt 0.875 -0.00390625
vt 0.875 -0.04589844
f 38/38/38 39/39/39 40/40/40
f 39/39/39 41/41/41 40/40/40
f 40/40/40 41/41/41 42/42/42
v 1 0 1
v 1 0.8000488 0.8000488
v 1 1.100098 1
v 1 1.300049 0.8000488
vn 0.9980469 0 0
vn 0.9980469 0 0
vn 0.9980469 0 0
vn 0.9980469 0 0
vt 0.5009766 -0.9726563
vt 0.5576172 -0.7197266
vt 0.5009766 -0.6035156
vt 0.5576172 -0.5292969
f 43/43/43 44/44/44 45/45/45
f 44/44/44 46/46/46 45/45/45
v 1 1.800049 -1
v 1 0 -1
v 0.8000488 0.8010254 -1
v 0.8000488 0.1999512 -1
vn 0 0 -1
vn 0 0 -1
vn 0 0 -1
vn 0 0 -1
vt 0.9902344 -0.4326172
vt 0.9902344 -0.9726563
vt 0.9306641 -0.7197266
vt 0.9306641 -0.9111328
f 47/47/47 48/48/48 49/49/49
f 48/48/48 50/50/50 49/49/49
v 1 0 -0.8000488
v 1 0 -1
v 1 0.1999512 -0.8000488
v 1 0.8000488 -0.8000488
vn 0.9980469 0 0
vn 0.9980469 0 0
vn 0.9980469 0 0
vn 0.9980469 0 0
vt 0.9306641 -0.9726563
vt 0.9902344 -0.9726563
vt 0.9306641 -0.9111328
vt 0.9306641 -0.7197266
f 51/51/51 52/52/52 53/53/53
f 52/52/52 54/54/54 53/53/53
v -0.8000488 1.800049 -1
v 0.8000488 1.800049 -1
v -0.8000488 0.8010254 -1
v 0.8000488 0.8010254 -1
vn 0 0 -1
vn 0 0 -1
vn 0 0 -1
vn 0 0 -1
vt 0.9697266 -0.09570313
vt 0.5664063 -0.09570313
vt 0.9697266 -0.3828125
vt 0.5664063 -0.3828125
f 55/55/55 56/56/56 57/57/57
f 56/56/56 58/58/58 57/57/57
v 0.8000488 1.300049 0.8000488
v 0.8000488 1 0.8999023
v 0.8000488 1.100098 1
v 0.8000488 0.6000977 1
vn -1 0 0
vn -1 0 0
vn -1 0 0
vn -1 0 0
vt 0.5683594 -0.5673828
vt 0.5263672 -0.7197266
vt 0.5078125 -0.6367188
vt 0.5078125 -0.7197266
f 59/59/59 60/60/60 61/61/61
f 60/60/60 62/62/62 61/61/61
v 0.8000488 0 0.8000488
v 0.8000488 0.1999512 0.8000488
v 1 0 0.8000488
v 1 0.1999512 0.8000488
vn 0 0 -1
vn 0 0 -1
vn 0 0 -1
vn 0 0 -1
vt 0.875 -1
vt 0.875 -0.8916016
vt 1 -1
vt 1 -0.8916016
f 63/63/63 64/64/64 65/65/65
f 64/64/64 66/66/66 65/65/65
v 0.8000488 0.1999512 -1
v -0.8000488 0.1999512 -1
v 0.8000488 0.8010254 -1
v -0.8000488 0.8010254 -1
vn 0 0 -1
vn 0 0 -1
vn 0 0 -1
vn 0 0 -1
vt 0.9306641 -0.9111328
vt 0.5683594 -0.9111328
vt 0.9306641 -0.7197266
vt 0.5683594 -0.7197266
f 67/67/67 68/68/68 69/69/69
f 68/68/68 70/70/70 69/69/69
v -0.8000488 0.1999512 1
v 0.8000488 0.1999512 1
v -0.8000488 0.6000977 1
v 0.8000488 0.6000977 1
vn 0 0 0.9980469
vn 0 0 0.9980469
vn 0 0 0.9980469
vn 0 0 0.9980469
vt 0.002929688 -0.9111328
vt 0.421875 -0.9111328
vt 0.002929688 -0.8154297
vt 0.421875 -0.8154297
f 71/71/71 72/72/72 73/73/73
f 72/72/72 74/74/74 73/73/73
v -0.8000488 1.300049 0.8000488
v -0.8000488 1.800049 -0.5
v -1 1.300049 0.8000488
v -1 1.899902 -0.8000488
vn 0 0.9335938 0.359375
vn -0.01953125 0.9394531 0.3417969
vn -0.02929688 0.9335938 0.3554688
vn -0.02148438 0.9960938 0.078125
vt 0.4375 -0.4511719
vt 0.4375 -0.1660156
vt 0.5078125 -0.4511719
vt 0.5078125 -0.1660156
f 75/75/75 76/76/76 77/77/77
f 76/76/76 78/78/78 77/77/77
v 0.8000488 0 1
v 0.8000488 0.1999512 1
v 0.8000488 0 0.8000488
v 0.8000488 0.1999512 0.8000488
vn -1 0 0
vn -1 0 0
vn -1 0 0
vn -1 0 0
vt 0.875 -1
vt 0.875 -0.8916016
vt 0.875 -1
vt 0.875 -0.8916016
f 79/79/79 80/80/80 81/81/81
f 80/80/80 82/82/82 81/81/81
v -0.8000488 1.800049 -0.5
v -0.8000488 1.300049 0.8000488
v -0.8000488 1 -0.5
v -0.8000488 1 0.8999023
vn 0.9980469 0 0
vn 0.9980469 0 0
vn 0.9980469 0 0
vn 0.9980469 0 0
vt 0.8398438 -0.3896484
vt 0.5371094 -0.5927734
vt 0.8398438 -0.7197266
vt 0.5263672 -0.7197266
f 83/83/83 84/84/84 85/85/85
f 84/84/84 86/86/86 85/85/85
v 0.8000488 0 1
v 1 0 1
v 0.8000488 0.1999512 1
v 0.8000488 0.6000977 1
vn 0 0 0.9980469
vn 0 0 0.9980469
vn 0 0 0.9980469
vn 0 0 0.9980469
vt 0.4375 -0.9726563
vt 0.5078125 -0.9726563
vt 0.4375 -0.9003906
vt 0.4375 -0.7841797
f 87/87/87 88/88/88 89/89/89
f 88/88/88 90/90/90 89/89/89
v 0.8000488 1.300049 0.8000488
v 0.8000488 1.100098 1
v 1 1.300049 0.8000488
v 1 1.100098 1
vn 0 0.7070313 0.7070313
vn 0 0.7070313 0.7070313
vn 0 0.7070313 0.7070313
vn 0 0.7070313 0.7070313
vt 0.4375 -0.4511719
vt 0.4375 -0.5732422
vt 0.5078125 -0.4511719
vt 0.5078125 -0.5732422
f 91/91/91 92/92/92 93/93/93
f 92/92/92 94/94/94 93/93/93
v -1 0.1999512 -0.8000488
v -1 0.1999512 0.8000488
v -1 0.8000488 -0.8000488
v -1 0.8000488 0.8000488
vn -1 0 0
vn -1 0 0
vn -1 0 0
vn -1 0 0
vt 0.9306641 -0.9111328
vt 0.5683594 -0.9111328
vt 0.9306641 -0.7197266
vt 0.5683594 -0.7197266
f 95/95/95 96/96/96 97/97/97
f 96/96/96 98/98/98 97/97/97
v -0.8000488 0.1999512 -0.8000488
v -0.8000488 0 -0.8000488
v -0.8000488 0.1999512 -1
v -0.8000488 0 -1
vn 0.9980469 0 0
vn 0.9980469 0 0
vn 0.9980469 0 0
vn 0.9980469 0 0
vt 0.125 -0.8916016
vt 0.125 -1
vt 0.125 -0.8916016
vt 0.125 -1
f 99/99/99 100/100/100 101/101/101
f 100/100/100 102/102/102 101/101/101
v 1 0.1999512 0.8000488
v 1 0.1999512 -0.8000488
v 1 0.8000488 0.8000488
v 1 0.8000488 -0.8000488
vn 0.9980469 0 0
vn 0.9980469 0 0
vn 0.9980469 0 0
vn 0.9980469 0 0
vt 0.5683594 -0.9111328
vt 0.9306641 -0.9111328
vt 0.5683594 -0.7197266
vt 0.9306641 -0.7197266
f 103/103/103 104/104/104 105/105/105
f 104/104/104 106/106/106 105/105/105
v 0.8000488 1.300049 0.8000488
v 1 1.300049 0.8000488
v 0.8000488 1.800049 -0.5
v 1 1.899902 -0.8000488
vn 0 0.9335938 0.359375
vn 0.02929688 0.9335938 0.3554688
vn 0.01953125 0.9394531 0.3417969
vn 0.02148438 0.9960938 0.078125
vt 0.4375 -0.4511719
vt 0.5078125 -0.4511719
vt 0.4375 -0.1660156
vt 0.5078125 -0.1660156
f 107/107/107 108/108/108 109/109/109
f 108/108/108 110/110/110 109/109/109
v -1 0.1999512 -0.8000488
v -1 0 -0.8000488
v -0.8000488 0.1999512 -0.8000488
v -0.8000488 0 -0.8000488
vn 0 0 0.9980469
vn 0 0 0.9980469
vn 0 0 0.9980469
vn 0 0 0.9980469
vt 0 -0.8916016
vt 0 -1
vt 0.125 -0.8916016
vt 0.125 -1
f 111/111/111 112/112/112 113/113/113
f 112/112/112 114/114/114 113/113/113
v -0.8000488 0.1999512 1
v -0.8000488 0 1
v -0.8000488 0.1999512 0.8000488
v -0.8000488 0 0.8000488
vn 0.9980469 0 0
vn 0.9980469 0 0
vn 0.9980469 0 0
vn 0.9980469 0 0
vt 0.125 -0.8916016
vt 0.125 -1
vt 0.125 -0.8916016
vt 0.125 -1
f 115/115/115 116/116/116 117/117/117
f 116/116/116 118/118/118 117/117/117
v 0.8000488 1 0.8999023
v 0.8000488 1.300049 0.8000488
v 0.8000488 1 -0.5
v 0.8000488 1.800049 -0.5
vn -1 0 0
vn -1 0 0
vn -1 0 0
vn -1 0 0
vt 0.5263672 -0.7197266
vt 0.5371094 -0.5927734
vt 0.8398438 -0.7197266
vt 0.8398438 -0.3896484
f 119/119/119 120/120/120 121/121/121
f 120/120/120 122/122/122 121/121/121
v -1 0.8000488 0.8000488
v -1 0.1999512 0.8000488
v -1 0 1
v -1 0 0.8000488
vn -1 0 0
vn -1 0 0
vn -1 0 0
vn -1 0 0
vt 0.5683594 -0.7197266
vt 0.5683594 -0.9111328
vt 0.5078125 -0.9726563
vt 0.5683594 -0.9726563
f 123/123/123 124/124/124 125/125/125
f 124/124/124 126/126/126 125/125/125
v -0.8000488 1.300049 0.8000488
v -0.8000488 1.100098 1
v -0.8000488 1 0.8999023
v -0.8000488 0.6000977 1
vn 0.9980469 0 0
vn 0.9980469 0 0
vn 0.9980469 0 0
vn 0.9980469 0 0
vt 0.5683594 -0.5673828
vt 0.5078125 -0.6367188
vt 0.5263672 -0.7197266
vt 0.5078125 -0.8154297
f 127/127/127 128/128/128 129/129/129
f 128/128/128 130/130/130 129/129/129
v 1 0 0.8000488
v 1 0.1999512 0.8000488
v 1 0 1
v 1 0.8000488 0.8000488
vn 0.9980469 0 0
vn 0.9980469 0 0
vn 0.9980469 0 0
vn 0.9980469 0 0
vt 0.5683594 -0.9726563
vt 0.5683594 -0.9111328
vt 0.5078125 -0.9726563
vt 0.5683594 -0.7197266
f 131/131/131 132/132/132 133/133/133
f 132/132/132 134/134/134 133/133/133
v 0.8000488 0 -0.8000488
v 0.8000488 0.1999512 -0.8000488
v 0.8000488 0 -1
v 0.8000488 0.1999512 -1
vn -1 0 0
vn -1 0 0
vn -1 0 0
vn -1 0 0
vt 0.875 -1
vt 0.875 -0.8916016
vt 0.875 -1
vt 0.875 -0.8916016
f 135/135/135 136/136/136 137/137/137
f 136/136/136 138/138/138 137/137/137
v -1 1.300049 0.8000488
v -1 1.100098 1
v -0.8000488 1.300049 0.8000488
v -0.8000488 1.100098 1
vn 0 0.7070313 0.7070313
vn 0 0.7070313 0.7070313
vn 0 0.7070313 0.7070313
vn 0 0.7070313 0.7070313
vt 0.5078125 -0.4511719
vt 0.5078125 -0.5732422
vt 0.4375 -0.4511719
vt 0.4375 -0.5732422
f 139/139/139 140/140/140 141/141/141
f 140/140/140 142/142/142 141/141/141
v 0.8000488 1.100098 1
v 0.8000488 0.6000977 1
v 1 1.100098 1
v 1 0 1
vn 0 0 0.9980469
vn 0 0 0.9980469
vn 0 0 0.9980469
vn 0 0 0.9980469
vt 0.4375 -0.6298828
vt 0.4375 -0.7841797
vt 0.5078125 -0.6298828
vt 0.5078125 -0.9726563
f 143/143/143 144/144/144 145/145/145
f 144/144/144 146/146/146 145/145/145
v 1 0 -0.8000488
v 1 0.1999512 -0.8000488
v 0.8000488 0 -0.8000488
v 0.8000488 0.1999512 -0.8000488
vn 0 0 0.9980469
vn 0 0 0.9980469
vn 0 0 0.9980469
vn 0 0 0.9980469
vt 1 -1
vt 1 -0.8916016
vt 0.875 -1
vt 0.875 -0.8916016
f 147/147/147 148/148/148 149/149/149
f 148/148/148 150/150/150 149/149/149
v -0.8000488 0 -1
v -1 0 -1
v -0.8000488 0.1999512 -1
v -0.8000488 0.8010254 -1
vn 0 0 -1
vn 0 0 -1
vn 0 0 -1
vn 0 0 -1
vt 0.9306641 -0.9726563
vt 0.9902344 -0.9726563
vt 0.9306641 -0.9111328
vt 0.9306641 -0.7197266
f 151/151/151 152/152/152 153/153/153
f 152/152/152 154/154/154 153/153/153
v -0.8000488 0.1999512 0.8000488
v -0.8000488 0 0.8000488
v -1 0.1999512 0.8000488
v -1 0 0.8000488
vn 0 0 -1
vn 0 0 -1
vn 0 0 -1
vn 0 0 -1
vt 0.125 -0.8916016
vt 0.125 -1
vt 0 -0.8916016
vt 0 -1
f 155/155/155 156/156/156 157/157/157
f 156/156/156 158/158/158 157/157/157
v -0.8000488 1.800049 -0.5
v -0.8000488 1.899902 -0.8000488
v -1 1.899902 -0.8000488
v -1 1.800049 -1
vn -0.01953125 0.9394531 0.3417969
vn 0 0.9628906 -0.2714844
vn -0.02148438 0.9960938 0.078125
vn 0 0.8945313 -0.4472656
vt 0.125 0
vt 0.125 -0.00390625
vt 0 -0.00390625
vt 0 -0.04589844
f 159/159/159 160/160/160 161/161/161
f 160/160/160 162/162/162 161/161/161
v -0.8000488 0.8010254 -1
v -1 1.800049 -1
v -0.8000488 1.800049 -1
v 0.8000488 0.1999512 -1
v 1 0 -1
v 0.8000488 0 -1
v 0.8000488 0.8010254 -1
v 0.8000488 1.800049 -1
v 1 1.800049 -1
v -1 1.800049 -1
v -0.8000488 0.8010254 -1
v -1 0 -1
v -0.8000488 1.899902 -0.8000488
v -0.8000488 1.800049 -0.5
v 0.8000488 1.899902 -0.8000488
v -1 0.8000488 0.8000488
v -1 1.899902 -0.8000488
v -1 0.8000488 -0.8000488
vn 0 0 -1
vn 0 0 -1
vn 0 0 -1
vn 0 0 -1
vn 0 0 -1
vn 0 0 -1
vn 0 0 -1
vn 0 0 -1
vn 0 0 -1
vn 0 0 -1
vn 0 0 -1
vn 0 0 -1
vn 0 0.9492188 0.3164063
vn 0 0.5839844 0.8105469
vn 0 0.9492188 0.3164063
vn -1 0 0
vn -1 0 0
vn -1 0 0
vt 0.5664063 -0.3828125
vt 0.4951172 -0.09570313
vt 0.5664063 -0.09570313
vt 0.9306641 -0.9111328
vt 0.9902344 -0.9726563
vt 0.9306641 -0.9726563
vt 0.5664063 -0.3828125
vt 0.5664063 -0.09570313
vt 0.4951172 -0.09570313
vt 0.9902344 -0.4326172
vt 0.9306641 -0.7197266
vt 0.9902344 -0.9726563
vt 0.01269531 -0.7890625
vt 0.01269531 -0.5898438
vt 0.4111328 -0.7890625
vt 0.5576172 -0.7197266
vt 0.9306641 -0.3828125
vt 0.9306641 -0.7197266
f 163/163/163 164/164/164 165/165/165
f 166/166/166 167/167/167 168/168/168
f 169/169/169 170/170/170 171/171/171
f 172/172/172 173/173/173 174/174/174
f 175/175/175 176/176/176 177/177/177
f 178/178/178 179/179/179 180/180/180
