# Blender v2.81 (sub 16) OBJ File: ''
# www.blender.org
mtllib r_arm.mtl
o vsn_mesh_2__mesh_2_.003
v 0.007642 -0.389678 -0.432437
v -0.208096 0.318482 0.066237
v 0.007642 -0.389678 -0.432437
v -0.103548 -0.199138 -0.410660
v 0.204652 -0.450805 0.020571
v 0.180414 -0.178928 0.375257
v -0.112782 0.108452 0.351027
v -0.199349 0.139922 -0.364909
v 0.180414 -0.178928 0.375257
v -0.107463 -0.122698 0.278667
v -0.053324 -0.383378 0.194447
v -0.112782 0.108452 0.351027
v -0.255207 -0.022768 -0.002570
v -0.208096 0.318482 0.066237
v -0.199349 0.139922 -0.364909
v 0.052829 -0.260828 -0.482547
v -0.130027 -0.237898 -0.466078
v -0.236797 -0.335388 -0.118208
v -0.044678 -0.486632 0.135837
v 0.178598 -0.483569 0.030840
v 0.204652 -0.450805 0.020571
v 0.206044 -0.507560 -0.270203
v 0.168573 -0.870034 -0.105415
v -0.031464 -0.777882 0.090907
v -0.217437 -0.662421 -0.122852
v -0.131900 -0.370928 -0.457586
v -0.116650 -0.874542 -0.385881
v 0.052978 -0.395398 -0.476961
v -0.103548 -0.199138 -0.410660
v -0.103548 -0.199138 -0.410660
v 0.052829 -0.260828 -0.482547
v 0.052978 -0.395398 -0.476961
v 0.066602 -0.877496 -0.384357
v 0.062876 -1.029765 -0.352908
v 0.155464 -1.189005 -0.028868
v -0.029504 -0.896160 0.087547
v -0.199126 -0.873552 -0.112685
v -0.112703 -1.030150 -0.357315
v 0.066602 -0.877496 -0.384357
v 0.062876 -1.029765 -0.352908
v -0.121568 -1.318219 -0.259891
v 0.073459 -1.315395 -0.264640
v 0.104463 -1.435937 -0.146359
v -0.161404 -1.435624 -0.149582
v -0.266203 -1.337437 0.048622
v -0.212178 -1.190357 -0.028448
v -0.025911 -1.165616 0.138447
v -0.162157 -1.239384 0.222757
v -0.025899 -1.199787 0.246967
v 0.109122 -1.243118 0.224197
v 0.206991 -1.338303 0.050284
v 0.073459 -1.315395 -0.264640
v 0.104463 -1.435937 -0.146359
v 0.200374 -1.312640 0.132827
v 0.141371 -1.286976 0.184837
v -0.236797 -0.335388 -0.118208
v -0.130027 -0.237898 -0.466078
v -0.131900 -0.370928 -0.457586
v -0.258761 -1.311111 0.130187
v -0.198932 -1.284784 0.181227
v -0.212178 -1.190357 -0.028448
v -0.266203 -1.337437 0.048622
v -0.162157 -1.239384 0.222757
v -0.161404 -1.435624 -0.149582
v -0.245902 -1.430103 0.050783
v -0.266203 -1.337437 0.048622
v -0.240373 -1.430102 0.150307
v -0.258761 -1.311111 0.130187
v -0.198932 -1.284784 0.181227
v -0.177957 -1.430102 0.210827
v -0.031197 -1.489866 0.060427
v -0.161105 -1.430102 0.275037
v -0.104092 -1.430102 0.322967
v -0.034674 -1.430102 0.316017
v 0.024442 -1.430102 0.328397
v -0.031516 -1.278623 0.312687
v -0.139040 -1.282857 0.279797
v -0.162157 -1.239384 0.222757
v -0.025899 -1.199787 0.246967
v 0.069146 -1.281447 0.289327
v 0.095823 -1.430102 0.288507
v 0.131233 -1.430102 0.207367
v 0.184180 -1.430102 0.148377
v 0.198364 -1.430103 0.050782
v 0.104463 -1.435937 -0.146359
v -0.161404 -1.435624 -0.149582
v 0.141371 -1.286976 0.184837
v 0.109122 -1.243118 0.224197
v 0.200374 -1.312640 0.132827
v 0.206991 -1.338303 0.050284
v 0.104463 -1.435937 -0.146359
v 0.007642 -0.389678 -0.432437
v 0.007642 -0.389678 -0.432437
v -0.103548 -0.199138 -0.410660
v 0.204652 -0.450805 0.020571
v 0.180414 -0.178928 0.375257
v -0.112782 0.108452 0.351027
v -0.199349 0.139922 -0.364909
v 0.180414 -0.178928 0.375257
v -0.107463 -0.122698 0.278667
v -0.053324 -0.383378 0.194447
v -0.112782 0.108452 0.351027
v -0.255207 -0.022768 -0.002570
v -0.199349 0.139922 -0.364909
v 0.052829 -0.260828 -0.482547
v -0.130027 -0.237898 -0.466078
v -0.236797 -0.335388 -0.118208
v -0.044678 -0.486632 0.135837
v 0.178598 -0.483569 0.030840
v 0.204652 -0.450805 0.020571
v 0.206044 -0.507560 -0.270203
v 0.168573 -0.870034 -0.105415
v -0.031464 -0.777882 0.090907
v -0.217437 -0.662421 -0.122852
v -0.131900 -0.370928 -0.457586
v -0.116650 -0.874542 -0.385881
v 0.052978 -0.395398 -0.476961
v -0.103548 -0.199138 -0.410660
v -0.103548 -0.199138 -0.410660
v 0.052829 -0.260828 -0.482547
v 0.052978 -0.395398 -0.476961
v 0.066602 -0.877496 -0.384357
v 0.062876 -1.029765 -0.352908
v 0.155464 -1.189005 -0.028868
v -0.029504 -0.896160 0.087547
v -0.199126 -0.873552 -0.112685
v -0.112703 -1.030150 -0.357315
v 0.066602 -0.877496 -0.384357
v 0.062876 -1.029765 -0.352908
v -0.121568 -1.318219 -0.259891
v 0.073459 -1.315395 -0.264640
v 0.104463 -1.435937 -0.146359
v -0.161404 -1.435624 -0.149582
v -0.266203 -1.337437 0.048622
v -0.212178 -1.190357 -0.028448
v -0.025911 -1.165616 0.138447
v -0.162157 -1.239384 0.222757
v -0.025899 -1.199787 0.246967
v 0.109122 -1.243118 0.224197
v 0.206991 -1.338303 0.050284
v 0.073459 -1.315395 -0.264640
v 0.104463 -1.435937 -0.146359
v 0.200374 -1.312640 0.132827
v 0.141371 -1.286976 0.184837
v -0.236797 -0.335388 -0.118208
v -0.130027 -0.237898 -0.466078
v -0.131900 -0.370928 -0.457586
v -0.258761 -1.311111 0.130187
v -0.198932 -1.284784 0.181227
v -0.212178 -1.190357 -0.028448
v -0.266203 -1.337437 0.048622
v -0.162157 -1.239384 0.222757
v -0.161404 -1.435624 -0.149582
v -0.245902 -1.430103 0.050783
v -0.266203 -1.337437 0.048622
v -0.240373 -1.430102 0.150307
v -0.258761 -1.311111 0.130187
v -0.198932 -1.284784 0.181227
v -0.177957 -1.430102 0.210827
v -0.031197 -1.489866 0.060427
v -0.161105 -1.430102 0.275037
v -0.104092 -1.430102 0.322967
v -0.034674 -1.430102 0.316017
v 0.024442 -1.430102 0.328397
v -0.031516 -1.278623 0.312687
v -0.139040 -1.282857 0.279797
v -0.162157 -1.239384 0.222757
v -0.025899 -1.199787 0.246967
v 0.069146 -1.281447 0.289327
v 0.095823 -1.430102 0.288507
v 0.131233 -1.430102 0.207367
v 0.184180 -1.430102 0.148377
v 0.198364 -1.430103 0.050782
v 0.104463 -1.435937 -0.146359
v -0.161404 -1.435624 -0.149582
v 0.141371 -1.286976 0.184837
v 0.109122 -1.243118 0.224197
v 0.200374 -1.312640 0.132827
v 0.206991 -1.338303 0.050284
v 0.104463 -1.435937 -0.146359
vt 0.320252 0.085385
vt 0.300929 0.189234
vt 0.301202 0.129855
vt 0.163777 0.819741
vt 0.146407 0.826412
vt 0.149000 0.740472
vt 0.146873 0.881795
vt 0.131504 0.843397
vt 0.131504 0.931569
vt 0.109339 0.880572
vt 0.094922 0.790248
vt 0.109339 0.790248
vt 0.129459 0.749630
vt 0.149000 0.708172
vt 0.161177 0.716136
vt 0.169447 0.786244
vt 0.172942 0.715266
vt 0.163740 0.591279
vt 0.149000 0.611455
vt 0.131504 0.649693
vt 0.109339 0.750000
vt 0.109339 0.602663
vt 0.094922 0.750000
vt 0.095038 0.880630
vt 0.179189 0.881011
vt 0.186453 0.881011
vt 0.186453 0.750000
vt 0.186453 0.602663
vt 0.186453 0.548857
vt 0.163740 0.467954
vt 0.149000 0.577739
vt 0.131504 0.591705
vt 0.109339 0.548857
vt 0.094922 0.602663
vt 0.094922 0.548857
vt 0.109339 0.437500
vt 0.094922 0.437500
vt 0.094922 0.381102
vt 0.109339 0.381102
vt 0.131441 0.400689
vt 0.131504 0.471655
vt 0.149000 0.480680
vt 0.141239 0.428323
vt 0.149277 0.429290
vt 0.155994 0.428747
vt 0.164910 0.400854
vt 0.186453 0.437500
vt 0.186453 0.381102
vt 0.162608 0.402766
vt 0.158907 0.411408
vt 0.129459 0.749630
vt 0.109339 0.790248
vt 0.109339 0.750000
vt 0.134841 0.403140
vt 0.138992 0.410680
vt 0.131504 0.471655
vt 0.131441 0.400689
vt 0.141239 0.428323
vt 0.439676 0.650059
vt 0.444356 0.719209
vt 0.439328 0.755518
vt 0.444983 0.755260
vt 0.441301 0.799703
vt 0.446681 0.816381
vt 0.451997 0.777555
vt 0.468827 0.722832
vt 0.453936 0.797832
vt 0.460407 0.815309
vt 0.468321 0.812895
vt 0.475052 0.817495
vt 0.468092 0.836838
vt 0.459964 0.832800
vt 0.454599 0.858154
vt 0.468057 0.867453
vt 0.477028 0.833445
vt 0.483123 0.803223
vt 0.486064 0.776539
vt 0.493279 0.755179
vt 0.494927 0.719561
vt 0.484250 0.647855
vt 0.454017 0.646611
vt 0.489599 0.814537
vt 0.482988 0.857757
vt 0.495055 0.799608
vt 0.498936 0.755145
vt 0.498880 0.647910
vt 0.359497 0.085385
vt 0.398142 0.189234
vt 0.397596 0.129855
vt 0.672446 0.819741
vt 0.707187 0.826412
vt 0.702001 0.740472
vt 0.706255 0.881795
vt 0.736991 0.843397
vt 0.781323 0.880572
vt 0.810156 0.790248
vt 0.781323 0.790248
vt 0.741081 0.749630
vt 0.702001 0.708172
vt 0.677647 0.716136
vt 0.661105 0.786244
vt 0.654117 0.715266
vt 0.672520 0.591279
vt 0.702001 0.611455
vt 0.736991 0.649693
vt 0.781323 0.750000
vt 0.781323 0.602663
vt 0.810156 0.750000
vt 0.809925 0.880630
vt 0.641622 0.881011
vt 0.627095 0.881011
vt 0.627095 0.750000
vt 0.627095 0.602663
vt 0.627095 0.548857
vt 0.672520 0.467954
vt 0.702001 0.577739
vt 0.736991 0.591705
vt 0.781323 0.548857
vt 0.810156 0.602663
vt 0.810156 0.548857
vt 0.781323 0.437500
vt 0.810156 0.437500
vt 0.810156 0.381102
vt 0.781323 0.381102
vt 0.737118 0.400689
vt 0.736991 0.471655
vt 0.702001 0.480680
vt 0.717522 0.428323
vt 0.701446 0.429290
vt 0.688011 0.428747
vt 0.670180 0.400854
vt 0.627095 0.437500
vt 0.627095 0.381102
vt 0.674783 0.402766
vt 0.682186 0.411408
vt 0.741081 0.749630
vt 0.781323 0.790248
vt 0.781323 0.750000
vt 0.730319 0.403140
vt 0.722016 0.410680
vt 0.736991 0.471655
vt 0.737118 0.400689
vt 0.717522 0.428323
vt 0.120647 0.650059
vt 0.111288 0.719209
vt 0.121344 0.755518
vt 0.110034 0.755260
vt 0.117399 0.799703
vt 0.106638 0.816381
vt 0.096167 0.777555
vt 0.062347 0.722832
vt 0.092128 0.797832
vt 0.079186 0.814641
vt 0.063358 0.812895
vt 0.052575 0.821165
vt 0.063816 0.836838
vt 0.080073 0.832800
vt 0.090801 0.858154
vt 0.063886 0.867453
vt 0.045945 0.833445
vt 0.033754 0.802222
vt 0.027872 0.776539
vt 0.015444 0.755179
vt 0.012649 0.719561
vt 0.031500 0.647855
vt 0.091965 0.646611
vt 0.020803 0.814537
vt 0.034024 0.857757
vt 0.009890 0.799608
vt 0.002129 0.755145
vt 0.002240 0.647910
vn -0.8133 -0.5072 0.2852
vn -0.1684 -0.4983 0.8505
vn -0.6721 -0.2792 0.6858
vn -0.4199 -0.5313 0.7358
vn -0.8019 -0.1309 0.5830
vn -0.9913 -0.0367 0.1263
vn -0.9817 0.1032 0.1603
vn -0.9782 0.0177 -0.2067
vn 0.0242 0.0740 -0.9970
vn -0.4304 0.0783 -0.8992
vn -0.9900 -0.1035 0.0955
vn -0.2967 -0.3321 0.8954
vn 0.7272 -0.4421 0.5250
vn 0.9105 -0.3433 0.2303
vn 0.9495 0.1822 -0.2554
vn 0.9727 -0.1183 0.1995
vn -0.1179 -0.1401 0.9831
vn -0.9800 -0.0694 0.1865
vn -0.4589 -0.1012 -0.8827
vn -0.5897 -0.1603 -0.7915
vn -0.0983 -0.1059 -0.9895
vn 0.4160 -0.0052 0.9094
vn 0.6225 0.7404 0.2537
vn 0.7398 0.6394 0.2092
vn 0.7900 -0.0487 -0.6112
vn 0.9066 -0.1505 -0.3942
vn 0.9415 -0.0910 -0.3244
vn 0.9671 0.2464 0.0632
vn -0.0348 0.1109 0.9932
vn -0.9846 -0.0072 0.1746
vn -0.5593 -0.2046 -0.8033
vn 0.0105 -0.1905 -0.9816
vn 0.0169 -0.2581 -0.9660
vn -0.5072 -0.3812 -0.7730
vn -0.0132 -0.5238 -0.8518
vn -0.0004 -0.6946 -0.7194
vn -0.6335 -0.4047 -0.6595
vn -0.9056 0.0443 -0.4218
vn -0.9777 0.2100 0.0080
vn 0.0119 0.7932 0.6089
vn -0.3303 0.9073 0.2600
vn 0.0137 0.9537 0.3003
vn 0.5710 0.7727 0.2773
vn 0.9628 0.1887 -0.1934
vn 0.9376 -0.0493 -0.3443
vn 0.9054 -0.1549 -0.3952
vn 0.7773 0.5850 0.2314
vn 0.7957 0.5290 0.2950
vn -0.9555 -0.0054 -0.2948
vn -0.7719 0.5943 0.2257
vn -0.7770 0.5542 0.2986
vn -0.8389 0.5117 0.1856
vn -0.9421 0.3345 -0.0220
vn -0.8526 0.4542 0.2584
vn -0.9035 -0.2067 -0.3753
vn -0.7500 -0.6500 -0.1223
vn -0.9793 -0.1860 -0.0802
vn -0.7225 -0.5732 0.3866
vn -0.8649 -0.0492 0.4995
vn -0.8016 0.0798 0.5924
vn -0.6631 -0.6628 0.3478
vn -0.0061 -1.0000 -0.0034
vn -0.6857 -0.5465 0.4808
vn -0.2608 -0.5220 0.8121
vn -0.0403 -0.6437 0.7642
vn 0.1412 -0.5299 0.8362
vn -0.0327 0.4010 0.9155
vn -0.5600 0.3629 0.7448
vn -0.6603 0.4437 0.6058
vn -0.0040 0.6813 0.7320
vn 0.5027 0.3743 0.7792
vn 0.6128 -0.5325 0.5839
vn 0.6619 -0.6279 0.4094
vn 0.7272 -0.5751 0.3749
vn 0.7943 -0.5970 -0.1127
vn 0.1278 -0.9770 -0.1710
vn -0.1298 -0.9766 -0.1718
vn 0.7916 0.0680 0.6072
vn 0.6935 0.3484 0.6307
vn 0.8676 -0.0542 0.4943
vn 0.9911 -0.1040 -0.0835
vn 0.9004 -0.0869 -0.4263
vn -0.6921 -0.2301 0.6841
vn -0.9819 -0.1315 0.1364
vn -0.9583 -0.0648 -0.2785
usemtl Cat_all_mat.004
s 1
f 5/1/1 4/2/1 3/3/1
f 9/4/2 10/5/3 11/6/4
f 9/4/2 12/7/5 10/5/3
f 12/7/5 13/8/6 10/5/3
f 12/7/5 14/9/7 13/8/6
f 14/9/7 15/10/8 13/8/6
f 15/10/8 16/11/9 17/12/10
f 13/8/6 15/10/8 17/12/10
f 13/8/6 17/12/10 18/13/11
f 10/5/3 13/8/6 18/13/11
f 11/6/4 10/5/3 18/13/11
f 11/6/4 18/13/11 19/14/12
f 11/6/4 19/14/12 20/15/13
f 20/15/13 9/4/2 11/6/4
f 21/16/14 9/4/2 20/15/13
f 20/15/13 22/17/15 21/16/14
f 20/15/13 23/18/16 22/17/15
f 20/15/13 24/19/17 23/18/16
f 20/15/13 19/14/12 24/19/17
f 19/14/12 18/13/11 24/19/17
f 18/13/11 25/20/18 24/19/17
f 25/20/18 18/13/11 26/21/19
f 27/22/20 25/20/18 26/21/19
f 26/21/19 28/23/21 27/22/20
f 28/23/21 26/21/19 17/12/10
f 16/11/9 28/23/21 17/12/10
f 16/11/9 15/10/8 29/24/22
f 22/17/15 30/25/23 21/16/14
f 31/26/24 30/25/23 22/17/15
f 22/17/15 32/27/25 31/26/24
f 32/27/25 22/17/15 33/28/26
f 23/18/16 33/28/26 22/17/15
f 33/28/26 23/18/16 34/29/27
f 23/18/16 35/30/28 34/29/27
f 36/31/29 35/30/28 23/18/16
f 24/19/17 36/31/29 23/18/16
f 24/19/17 37/32/30 36/31/29
f 37/32/30 24/19/17 25/20/18
f 25/20/18 27/22/20 37/32/30
f 27/22/20 38/33/31 37/32/30
f 39/34/32 38/33/31 27/22/20
f 28/23/21 39/34/32 27/22/20
f 39/34/32 40/35/33 38/33/31
f 40/35/33 41/36/34 38/33/31
f 40/35/33 42/37/35 41/36/34
f 41/36/34 42/37/35 43/38/36
f 41/36/34 43/38/36 44/39/37
f 44/39/37 45/40/38 41/36/34
f 41/36/34 45/40/38 46/41/39
f 38/33/31 41/36/34 46/41/39
f 38/33/31 46/41/39 37/32/30
f 37/32/30 46/41/39 36/31/29
f 46/41/39 47/42/40 36/31/29
f 47/42/40 46/41/39 48/43/41
f 49/44/42 47/42/40 48/43/41
f 47/42/40 49/44/42 50/45/43
f 47/42/40 50/45/43 35/30/28
f 36/31/29 47/42/40 35/30/28
f 51/46/44 52/47/45 35/30/28
f 53/48/46 52/47/45 51/46/44
f 35/30/28 52/47/45 34/29/27
f 54/49/47 51/46/44 35/30/28
f 55/50/48 54/49/47 35/30/28
f 55/50/48 35/30/28 50/45/43
f 56/51/49 57/52/49 58/53/49
f 59/54/50 60/55/51 61/56/52
f 62/57/53 59/54/50 61/56/52
f 60/55/51 63/58/54 61/56/52
f 64/59/55 65/60/56 66/61/57
f 66/61/57 65/60/56 67/62/58
f 67/62/58 68/63/59 66/61/57
f 67/62/58 69/64/60 68/63/59
f 67/62/58 70/65/61 69/64/60
f 70/65/61 67/62/58 71/66/62
f 72/67/63 70/65/61 71/66/62
f 73/68/64 72/67/63 71/66/62
f 74/69/65 73/68/64 71/66/62
f 75/70/66 74/69/65 71/66/62
f 76/71/67 74/69/65 75/70/66
f 73/68/64 74/69/65 76/71/67
f 73/68/64 76/71/67 77/72/68
f 77/72/68 72/67/63 73/68/64
f 69/64/60 72/67/63 77/72/68
f 70/65/61 72/67/63 69/64/60
f 78/73/69 69/64/60 77/72/68
f 77/72/68 79/74/70 78/73/69
f 77/72/68 76/71/67 79/74/70
f 80/75/71 79/74/70 76/71/67
f 80/75/71 76/71/67 75/70/66
f 75/70/66 81/76/72 80/75/71
f 81/76/72 75/70/66 71/66/62
f 82/77/73 81/76/72 71/66/62
f 83/78/74 82/77/73 71/66/62
f 71/66/62 84/79/75 83/78/74
f 85/80/76 84/79/75 71/66/62
f 85/80/76 71/66/62 86/81/77
f 71/66/62 65/60/56 86/81/77
f 71/66/62 67/62/58 65/60/56
f 80/75/71 87/82/78 88/83/79
f 81/76/72 87/82/78 80/75/71
f 82/77/73 87/82/78 81/76/72
f 87/82/78 82/77/73 83/78/74
f 87/82/78 83/78/74 89/84/80
f 89/84/80 83/78/74 90/85/81
f 83/78/74 84/79/75 90/85/81
f 91/86/82 90/85/81 84/79/75
f 88/83/79 79/74/70 80/75/71
usemtl Cat_all_mat.005
f 95/87/1 94/88/1 93/89/1
f 99/90/2 100/91/3 101/92/4
f 99/90/2 102/93/83 100/91/3
f 102/93/83 103/94/84 100/91/3
f 104/95/85 105/96/9 106/97/10
f 103/94/84 104/95/85 106/97/10
f 103/94/84 106/97/10 107/98/11
f 100/91/3 103/94/84 107/98/11
f 101/92/4 100/91/3 107/98/11
f 101/92/4 107/98/11 108/99/12
f 101/92/4 108/99/12 109/100/13
f 109/100/13 99/90/2 101/92/4
f 110/101/14 99/90/2 109/100/13
f 109/100/13 111/102/15 110/101/14
f 109/100/13 112/103/16 111/102/15
f 109/100/13 113/104/17 112/103/16
f 109/100/13 108/99/12 113/104/17
f 108/99/12 107/98/11 113/104/17
f 107/98/11 114/105/18 113/104/17
f 114/105/18 107/98/11 115/106/19
f 116/107/20 114/105/18 115/106/19
f 115/106/19 117/108/21 116/107/20
f 117/108/21 115/106/19 106/97/10
f 105/96/9 117/108/21 106/97/10
f 105/96/9 104/95/85 118/109/22
f 111/102/15 119/110/23 110/101/14
f 120/111/24 119/110/23 111/102/15
f 111/102/15 121/112/25 120/111/24
f 121/112/25 111/102/15 122/113/26
f 112/103/16 122/113/26 111/102/15
f 122/113/26 112/103/16 123/114/27
f 112/103/16 124/115/28 123/114/27
f 125/116/29 124/115/28 112/103/16
f 113/104/17 125/116/29 112/103/16
f 113/104/17 126/117/30 125/116/29
f 126/117/30 113/104/17 114/105/18
f 114/105/18 116/107/20 126/117/30
f 116/107/20 127/118/31 126/117/30
f 128/119/32 127/118/31 116/107/20
f 117/108/21 128/119/32 116/107/20
f 128/119/32 129/120/33 127/118/31
f 129/120/33 130/121/34 127/118/31
f 129/120/33 131/122/35 130/121/34
f 130/121/34 131/122/35 132/123/36
f 130/121/34 132/123/36 133/124/37
f 133/124/37 134/125/38 130/121/34
f 130/121/34 134/125/38 135/126/39
f 127/118/31 130/121/34 135/126/39
f 127/118/31 135/126/39 126/117/30
f 126/117/30 135/126/39 125/116/29
f 135/126/39 136/127/40 125/116/29
f 136/127/40 135/126/39 137/128/41
f 138/129/42 136/127/40 137/128/41
f 136/127/40 138/129/42 139/130/43
f 136/127/40 139/130/43 124/115/28
f 125/116/29 136/127/40 124/115/28
f 140/131/44 141/132/45 124/115/28
f 142/133/46 141/132/45 140/131/44
f 124/115/28 141/132/45 123/114/27
f 143/134/47 140/131/44 124/115/28
f 144/135/48 143/134/47 124/115/28
f 144/135/48 124/115/28 139/130/43
f 145/136/49 146/137/49 147/138/49
f 148/139/50 149/140/51 150/141/52
f 151/142/53 148/139/50 150/141/52
f 149/140/51 152/143/54 150/141/52
f 153/144/55 154/145/56 155/146/57
f 155/146/57 154/145/56 156/147/58
f 156/147/58 157/148/59 155/146/57
f 156/147/58 158/149/60 157/148/59
f 156/147/58 159/150/61 158/149/60
f 159/150/61 156/147/58 160/151/62
f 161/152/63 159/150/61 160/151/62
f 162/153/64 161/152/63 160/151/62
f 163/154/65 162/153/64 160/151/62
f 164/155/66 163/154/65 160/151/62
f 165/156/67 163/154/65 164/155/66
f 162/153/64 163/154/65 165/156/67
f 162/153/64 165/156/67 166/157/68
f 166/157/68 161/152/63 162/153/64
f 158/149/60 161/152/63 166/157/68
f 159/150/61 161/152/63 158/149/60
f 167/158/69 158/149/60 166/157/68
f 166/157/68 168/159/70 167/158/69
f 166/157/68 165/156/67 168/159/70
f 169/160/71 168/159/70 165/156/67
f 169/160/71 165/156/67 164/155/66
f 164/155/66 170/161/72 169/160/71
f 170/161/72 164/155/66 160/151/62
f 171/162/73 170/161/72 160/151/62
f 172/163/74 171/162/73 160/151/62
f 160/151/62 173/164/75 172/163/74
f 174/165/76 173/164/75 160/151/62
f 174/165/76 160/151/62 175/166/77
f 160/151/62 154/145/56 175/166/77
f 160/151/62 156/147/58 154/145/56
f 169/160/71 176/167/78 177/168/79
f 170/161/72 176/167/78 169/160/71
f 171/162/73 176/167/78 170/161/72
f 176/167/78 171/162/73 172/163/74
f 176/167/78 172/163/74 178/169/80
f 178/169/80 172/163/74 179/170/81
f 172/163/74 173/164/75 179/170/81
f 180/171/82 179/170/81 173/164/75
f 177/168/79 168/159/70 169/160/71
l 5 6
l 6 7
l 2 7
l 4 8
l 95 96
l 96 97
l 94 98
